<svg xmlns="http://www.w3.org/2000/svg" xmlns:xlink="http://www.w3.org/1999/xlink" width="500" zoomAndPan="magnify" viewBox="0 0 375 374.999991" height="500" preserveAspectRatio="xMidYMid meet" version="1.0"><defs><clipPath id="a212194a6b"><path d="M 191 71 L 293.871094 71 L 293.871094 283.453125 L 191 283.453125 Z M 191 71 " clip-rule="nonzero"/></clipPath><clipPath id="a7aa9de825"><path d="M 81.5 71 L 184 71 L 184 283.453125 L 81.5 283.453125 Z M 81.5 71 " clip-rule="nonzero"/></clipPath><clipPath id="55c870f15d"><path d="M 86.734375 73.25 L 183.402344 73.25 L 183.402344 281.371094 L 86.734375 281.371094 Z M 86.734375 73.25 " clip-rule="nonzero"/></clipPath><clipPath id="c676630cd8"><path d="M 86.898438 178.414062 C 90.375 161.46875 97.550781 154.738281 98.808594 154.738281 C 99.105469 154.738281 99.179688 155.328125 99.402344 155.328125 C 99.699219 155.328125 100.289062 154.808594 100.511719 154.070312 C 101.179688 152.148438 98.441406 145.488281 99.03125 141.269531 C 99.699219 136.753906 101.695312 130.984375 104.804688 127.875 C 107.617188 124.914062 113.683594 123.363281 116.273438 122.546875 C 117.53125 122.179688 119.085938 122.253906 119.085938 122.105469 C 119.085938 122.105469 118.9375 122.105469 118.863281 122.03125 C 118.566406 121.734375 118.789062 119.070312 118.640625 118.773438 C 118.640625 118.773438 118.566406 118.773438 118.566406 118.699219 C 118.417969 118.476562 118.566406 117.738281 118.492188 116.777344 C 118.417969 114.554688 117.382812 106.710938 117.828125 105.234375 C 117.976562 104.789062 118.269531 104.714844 118.34375 104.492188 C 118.417969 104.34375 118.269531 104.34375 118.34375 104.121094 C 118.714844 102.863281 122.339844 95.242188 125.597656 92.503906 C 128.777344 89.769531 134.03125 87.621094 137.4375 87.546875 C 139.953125 87.472656 142.691406 90.804688 144.097656 89.988281 C 145.722656 89.101562 144.097656 82.515625 145.871094 80.667969 C 147.574219 78.964844 153.273438 79.628906 154.308594 78.964844 C 154.605469 78.816406 154.75 78.371094 154.75 78.371094 C 154.824219 78.371094 155.714844 77.558594 156.230469 77.113281 C 156.675781 76.746094 157.636719 75.929688 157.636719 75.929688 C 157.636719 75.929688 158.746094 75.414062 159.265625 75.117188 C 159.855469 74.820312 160.96875 74.300781 160.96875 74.226562 C 160.96875 74.226562 162.152344 74.007812 162.816406 73.859375 C 163.410156 73.710938 164.59375 73.414062 164.59375 73.414062 C 164.667969 73.414062 165.851562 73.488281 166.515625 73.488281 C 167.109375 73.488281 168.292969 73.488281 168.367188 73.488281 C 168.367188 73.488281 169.550781 73.859375 170.144531 74.007812 C 170.734375 74.15625 171.917969 74.449219 171.992188 74.449219 C 171.992188 74.449219 173.027344 75.042969 173.621094 75.339844 C 174.136719 75.632812 175.25 76.226562 175.25 76.226562 C 175.25 76.300781 176.136719 77.113281 176.582031 77.558594 C 177.097656 77.929688 177.988281 78.742188 177.988281 78.816406 C 177.988281 78.816406 178.652344 79.851562 179.023438 80.371094 C 179.390625 80.886719 180.058594 81.851562 180.058594 81.925781 C 180.058594 81.925781 180.503906 83.109375 180.722656 83.699219 C 180.871094 84.292969 181.316406 85.402344 181.316406 85.402344 C 181.316406 85.476562 181.316406 85.773438 181.390625 85.917969 C 181.464844 86.066406 181.613281 86.066406 181.6875 86.214844 C 181.835938 86.585938 181.613281 87.621094 181.613281 88.140625 C 181.613281 88.507812 181.6875 89.101562 181.6875 89.175781 C 181.6875 89.25 181.613281 97.757812 181.464844 101.976562 C 181.390625 106.046875 180.722656 111.890625 181.019531 113.890625 C 181.167969 114.628906 181.539062 115.296875 181.539062 115.296875 C 181.613281 115.296875 181.6875 116.554688 181.835938 117.144531 C 181.90625 117.738281 182.054688 118.996094 182.054688 118.996094 C 182.054688 118.996094 182.054688 120.03125 182.054688 120.328125 C 181.980469 120.402344 181.980469 120.402344 181.980469 120.625 C 181.980469 121.660156 181.980469 128.171875 181.90625 132.167969 C 181.90625 136.386719 181.835938 140.898438 181.90625 145.265625 C 181.980469 149.703125 182.203125 154.144531 182.351562 158.585938 C 182.5 163.023438 182.722656 167.316406 182.871094 171.753906 C 183.019531 176.34375 183.167969 181.226562 183.167969 185.742188 C 183.167969 190.105469 182.871094 194.175781 182.871094 198.46875 C 182.871094 202.6875 183.09375 206.902344 183.167969 211.195312 C 183.167969 215.488281 183.167969 219.777344 183.167969 224.070312 C 183.167969 228.289062 183.09375 232.507812 182.945312 236.722656 C 182.796875 241.015625 182.945312 245.382812 182.128906 249.453125 C 181.390625 253.375 179.246094 256.925781 178.503906 260.773438 C 177.765625 264.546875 179.6875 269.28125 177.839844 272.539062 C 175.839844 276.089844 170.4375 279.640625 166 280.753906 C 161.410156 281.9375 150.753906 279.050781 150.609375 279.050781 C 150.535156 279.050781 149.351562 278.902344 148.757812 278.828125 C 148.164062 278.679688 146.90625 278.53125 146.90625 278.53125 C 146.90625 278.53125 145.722656 278.089844 145.207031 277.867188 C 144.613281 277.644531 143.429688 277.199219 143.429688 277.199219 C 143.429688 277.199219 142.394531 276.460938 141.875 276.089844 C 141.433594 275.792969 140.394531 275.054688 140.394531 275.054688 C 140.394531 275.054688 139.285156 273.796875 139.136719 273.648438 C 139.136719 273.574219 139.136719 273.574219 139.136719 273.574219 C 138.769531 273.277344 135.140625 272.539062 133.589844 270.984375 C 131.441406 268.988281 129.890625 261.957031 128.558594 261.21875 C 128.113281 260.996094 127.816406 261.292969 127.300781 261.292969 C 126.78125 261.363281 125.523438 261.4375 125.523438 261.4375 C 125.449219 261.4375 123.894531 261.144531 123.671875 261.070312 C 123.597656 261.070312 123.597656 261.070312 123.523438 261.070312 C 123.449219 261.070312 123.15625 261.070312 123.15625 260.996094 C 123.082031 260.921875 121.898438 260.773438 121.898438 260.773438 C 121.824219 260.773438 121.824219 260.699219 121.75 260.699219 C 121.75 260.699219 121.75 260.699219 121.675781 260.699219 C 121.378906 260.625 119.824219 260.328125 119.824219 260.328125 C 119.824219 260.328125 118.714844 259.8125 118.199219 259.515625 C 117.605469 259.21875 116.496094 258.773438 116.496094 258.703125 C 116.496094 258.703125 115.535156 257.960938 115.089844 257.589844 C 114.570312 257.148438 113.683594 256.40625 113.683594 256.40625 C 113.683594 256.332031 113.3125 253.667969 112.722656 253.003906 C 112.277344 252.558594 111.539062 252.855469 111.019531 252.410156 C 110.132812 251.523438 109.613281 248.34375 108.875 247.230469 C 108.503906 246.640625 107.765625 245.972656 107.765625 245.972656 C 107.765625 245.898438 107.542969 244.492188 107.542969 244.125 C 107.46875 243.902344 107.542969 243.902344 107.46875 243.679688 C 107.320312 243.089844 106.136719 241.609375 106.0625 240.277344 C 105.988281 238.425781 108.355469 235.320312 108.355469 233.394531 C 108.355469 231.988281 107.910156 230.65625 107.023438 229.695312 C 105.765625 228.363281 102.65625 228.734375 100.660156 227.03125 C 97.625 224.664062 93.410156 218.300781 92.003906 214.671875 C 91.113281 212.230469 91.632812 209.566406 91.261719 207.941406 C 91.039062 206.902344 90.597656 206.535156 90.449219 205.644531 C 90.226562 204.238281 90.375 200.316406 90.375 200.316406 C 90.375 200.246094 90.523438 199.058594 90.597656 198.46875 C 90.746094 197.800781 90.820312 196.617188 90.894531 196.617188 C 90.894531 196.542969 91.335938 195.359375 91.484375 194.84375 C 91.707031 194.398438 92.078125 194.101562 92.003906 193.585938 C 91.855469 192.84375 90.003906 192.253906 89.265625 190.847656 C 87.933594 188.332031 86.898438 178.414062 86.898438 178.414062 " clip-rule="nonzero"/></clipPath></defs><rect x="-37.5" width="450" fill="#ffffff" y="-37.499999" height="449.999989" fill-opacity="1"/><rect x="-37.5" width="450" fill="#000000" y="-37.499999" height="449.999989" fill-opacity="1"/><path fill="#10b981" d="M 212.300781 231.265625 C 210.570312 231.90625 209.695312 233.847656 210.335938 235.625 C 210.953125 237.378906 212.941406 238.304688 214.695312 237.664062 C 223.863281 234.226562 234.125 238.917969 237.558594 248.042969 C 238.199219 249.769531 240.140625 250.695312 241.894531 250.054688 C 243.671875 249.414062 244.527344 247.425781 243.863281 245.648438 C 239.171875 233.019531 224.976562 226.550781 212.300781 231.265625 Z M 212.300781 231.265625 " fill-opacity="1" fill-rule="nonzero"/><g clip-path="url(#a212194a6b)"><path fill="#10b981" d="M 294.566406 176.53125 C 294.566406 166.488281 289.140625 157.269531 280.5625 152.246094 C 281.15625 149.875 281.605469 147.460938 281.605469 144.996094 C 281.605469 132.035156 272.792969 121.207031 260.875 117.914062 C 262.058594 114.976562 262.722656 111.847656 262.722656 108.625 C 262.722656 95.097656 251.730469 84.078125 238.199219 84.078125 C 237.75 84.078125 237.324219 84.148438 236.824219 84.171875 C 229.457031 77.207031 218.082031 73.15625 217.585938 72.988281 C 210.738281 70.40625 204.863281 70.597656 200.21875 73.628906 C 192.328125 78.792969 191.59375 90.191406 191.59375 90.664062 L 191.570312 143.691406 L 191.570312 143.714844 C 191.570312 143.714844 191.570312 143.738281 191.570312 143.738281 L 191.570312 234.464844 C 191.570312 234.511719 191.570312 234.511719 191.570312 234.511719 L 191.570312 258.488281 C 191.570312 271.996094 204.507812 283.011719 220.382812 283.011719 C 233.152344 283.011719 244.121094 275.882812 247.796875 265.742188 C 248.457031 265.789062 249.121094 265.929688 249.738281 265.929688 C 263.269531 265.929688 274.285156 254.960938 274.285156 241.40625 C 274.285156 238.492188 273.742188 235.578125 272.722656 232.902344 C 282.957031 228.492188 289.804688 218.351562 289.804688 207.027344 C 289.804688 202.953125 288.90625 198.972656 287.222656 195.320312 C 291.773438 190.324219 294.566406 183.78125 294.566406 176.53125 Z M 267.222656 227.710938 C 267.105469 227.757812 267.035156 227.804688 266.917969 227.855469 C 266.773438 227.925781 266.585938 227.925781 266.464844 228.019531 C 266.371094 228.066406 266.347656 228.113281 266.253906 228.160156 C 266.0625 228.351562 265.898438 228.492188 265.730469 228.683594 C 265.589844 228.824219 265.449219 228.945312 265.375 229.085938 C 265.210938 229.324219 265.140625 229.511719 265.019531 229.796875 C 264.972656 229.914062 264.902344 230.058594 264.855469 230.246094 C 264.808594 230.484375 264.808594 230.746094 264.808594 231.027344 C 264.808594 231.21875 264.808594 231.359375 264.855469 231.503906 C 264.855469 231.644531 264.808594 231.785156 264.855469 231.882812 C 264.902344 231.976562 264.996094 232.023438 265.019531 232.117188 C 265.117188 232.285156 265.117188 232.472656 265.210938 232.617188 C 266.703125 235.292969 267.554688 238.304688 267.554688 241.40625 C 267.554688 251.214844 259.523438 259.175781 249.738281 259.175781 C 248.53125 259.175781 247.34375 259.082031 246.183594 258.796875 L 246.136719 258.796875 C 244.335938 258.464844 242.511719 259.628906 242.109375 261.429688 C 240.332031 270.003906 231.164062 276.261719 220.382812 276.261719 C 208.179688 276.261719 198.324219 268.253906 198.324219 258.488281 L 198.324219 234.464844 C 198.324219 224.703125 206.308594 216.695312 216.09375 216.695312 C 217.964844 216.695312 219.503906 215.203125 219.503906 213.304688 C 219.503906 211.457031 217.988281 209.917969 216.09375 209.917969 C 209.078125 209.917969 202.777344 212.925781 198.324219 217.640625 L 198.324219 143.714844 C 198.324219 133.90625 206.308594 125.945312 216.09375 125.945312 C 217.964844 125.945312 219.503906 124.429688 219.503906 122.558594 C 219.503906 120.6875 217.988281 119.144531 216.09375 119.144531 C 209.078125 119.144531 202.777344 122.132812 198.324219 126.847656 L 198.324219 90.855469 C 198.324219 90.855469 198.914062 82.539062 203.960938 79.292969 C 206.640625 77.515625 210.5 77.539062 215.3125 79.339844 C 215.453125 79.410156 222.492188 81.921875 228.507812 86.09375 C 223.605469 88.226562 219.410156 91.875 216.734375 96.707031 C 214.742188 100.332031 213.675781 104.457031 213.675781 108.601562 C 213.675781 110.449219 215.167969 111.988281 217.0625 111.988281 C 218.9375 111.988281 220.453125 110.449219 220.453125 108.601562 C 220.453125 105.59375 221.210938 102.605469 222.679688 99.976562 C 225.785156 94.363281 231.730469 90.855469 238.199219 90.855469 C 247.984375 90.855469 255.96875 98.816406 255.96875 108.625 C 255.96875 111.539062 255.117188 114.3125 253.789062 116.847656 C 253.648438 116.847656 253.53125 116.824219 253.410156 116.824219 C 242.652344 116.824219 233.011719 122.769531 228.199219 132.414062 C 227.371094 134.074219 228.035156 136.085938 229.71875 136.917969 C 231.375 137.746094 233.390625 137.082031 234.242188 135.421875 C 237.890625 128.101562 245.238281 123.578125 253.410156 123.578125 C 265.210938 123.578125 274.855469 133.171875 274.855469 144.996094 C 274.855469 146.558594 274.59375 148.101562 274.285156 149.617188 C 271.75 148.859375 269.144531 148.359375 266.347656 148.359375 C 264.5 148.359375 262.9375 149.851562 262.9375 151.726562 C 262.9375 153.597656 264.5 155.113281 266.347656 155.113281 C 269.453125 155.113281 272.414062 155.753906 275.1875 157.007812 C 275.257812 157.03125 275.304688 157.078125 275.351562 157.105469 L 275.398438 157.105469 C 282.933594 160.609375 287.765625 168.214844 287.765625 176.53125 C 287.765625 188.355469 278.171875 197.953125 266.347656 197.953125 C 264.5 197.953125 262.9375 199.46875 262.9375 201.386719 C 262.9375 203.234375 264.476562 204.777344 266.347656 204.777344 C 272.035156 204.777344 277.292969 203.023438 281.703125 200.15625 C 282.507812 202.289062 283.003906 204.65625 283.003906 207.027344 C 283.003906 216.648438 276.535156 225.152344 267.222656 227.710938 Z M 267.222656 227.710938 " fill-opacity="1" fill-rule="nonzero"/></g><path fill="#10b981" d="M 248.363281 198.640625 C 238.578125 198.046875 231.113281 189.589844 231.660156 179.800781 C 231.707031 179.351562 231.636719 178.925781 231.492188 178.5 C 236.636719 173.996094 240.214844 168.050781 241.515625 161.226562 C 241.894531 159.402344 240.710938 157.625 238.863281 157.269531 C 236.992188 156.914062 235.214844 158.121094 234.882812 159.921875 C 233.648438 166.25 230.046875 171.722656 224.742188 175.347656 C 219.410156 178.972656 213.011719 180.300781 206.710938 179.066406 C 204.933594 178.710938 203.0625 179.945312 202.730469 181.746094 C 202.398438 183.59375 203.605469 185.371094 205.453125 185.726562 C 207.398438 186.082031 209.339844 186.269531 211.28125 186.269531 C 216.070312 186.269531 220.785156 185.132812 225.074219 182.953125 C 226.09375 194.894531 235.617188 204.679688 247.9375 205.414062 C 248.03125 205.414062 248.078125 205.414062 248.128906 205.414062 C 249.929688 205.414062 251.421875 204.019531 251.539062 202.21875 C 251.609375 200.34375 250.234375 198.734375 248.363281 198.640625 Z M 248.363281 198.640625 " fill-opacity="1" fill-rule="nonzero"/><path fill="#10b981" d="M 163.070312 231.265625 C 164.796875 231.90625 165.675781 233.847656 165.035156 235.625 C 164.417969 237.378906 162.429688 238.304688 160.675781 237.664062 C 151.507812 234.226562 141.246094 238.917969 137.8125 248.042969 C 137.171875 249.769531 135.230469 250.695312 133.476562 250.054688 C 131.699219 249.414062 130.84375 247.425781 131.507812 245.648438 C 136.199219 233.019531 150.394531 226.550781 163.070312 231.265625 Z M 163.070312 231.265625 " fill-opacity="1" fill-rule="nonzero"/><g clip-path="url(#a7aa9de825)"><path fill="#10b981" d="M 80.804688 176.53125 C 80.804688 166.488281 86.230469 157.269531 94.808594 152.246094 C 94.214844 149.875 93.765625 147.460938 93.765625 144.996094 C 93.765625 132.035156 102.578125 121.207031 114.496094 117.914062 C 113.3125 114.976562 112.648438 111.847656 112.648438 108.625 C 112.648438 95.097656 123.640625 84.078125 137.171875 84.078125 C 137.621094 84.078125 138.046875 84.148438 138.546875 84.171875 C 145.914062 77.207031 157.289062 73.15625 157.785156 72.988281 C 164.632812 70.40625 170.507812 70.597656 175.152344 73.628906 C 183.042969 78.792969 183.777344 90.191406 183.777344 90.664062 L 183.800781 143.691406 L 183.800781 143.714844 C 183.800781 143.714844 183.800781 143.738281 183.800781 143.738281 L 183.800781 234.464844 C 183.800781 234.511719 183.800781 234.511719 183.800781 234.511719 L 183.800781 258.488281 C 183.800781 271.996094 170.863281 283.011719 154.988281 283.011719 C 142.21875 283.011719 131.25 275.882812 127.574219 265.742188 C 126.910156 265.789062 126.25 265.929688 125.632812 265.929688 C 112.101562 265.929688 101.085938 254.960938 101.085938 241.40625 C 101.085938 238.492188 101.628906 235.578125 102.648438 232.902344 C 92.414062 228.492188 85.566406 218.351562 85.566406 207.027344 C 85.566406 202.953125 86.464844 198.972656 88.148438 195.320312 C 83.597656 190.324219 80.804688 183.78125 80.804688 176.53125 Z M 108.144531 227.710938 C 108.265625 227.757812 108.335938 227.804688 108.453125 227.855469 C 108.597656 227.925781 108.785156 227.925781 108.90625 228.019531 C 109 228.066406 109.023438 228.113281 109.117188 228.160156 C 109.308594 228.351562 109.472656 228.492188 109.640625 228.683594 C 109.78125 228.824219 109.921875 228.945312 109.996094 229.085938 C 110.160156 229.324219 110.230469 229.511719 110.351562 229.796875 C 110.398438 229.914062 110.46875 230.058594 110.515625 230.246094 C 110.5625 230.484375 110.5625 230.746094 110.5625 231.027344 C 110.5625 231.21875 110.5625 231.359375 110.515625 231.503906 C 110.515625 231.644531 110.5625 231.785156 110.515625 231.882812 C 110.46875 231.976562 110.375 232.023438 110.351562 232.117188 C 110.253906 232.285156 110.253906 232.472656 110.160156 232.617188 C 108.667969 235.292969 107.816406 238.304688 107.816406 241.40625 C 107.816406 251.214844 115.847656 259.175781 125.632812 259.175781 C 126.839844 259.175781 128.027344 259.082031 129.1875 258.796875 L 129.234375 258.796875 C 131.035156 258.464844 132.859375 259.628906 133.261719 261.429688 C 135.039062 270.003906 144.207031 276.261719 154.988281 276.261719 C 167.191406 276.261719 177.046875 268.253906 177.046875 258.488281 L 177.046875 234.464844 C 177.046875 224.703125 169.0625 216.695312 159.277344 216.695312 C 157.40625 216.695312 155.867188 215.203125 155.867188 213.304688 C 155.867188 211.457031 157.382812 209.917969 159.277344 209.917969 C 166.292969 209.917969 172.59375 212.925781 177.046875 217.640625 L 177.046875 143.714844 C 177.046875 133.90625 169.0625 125.945312 159.277344 125.945312 C 157.40625 125.945312 155.867188 124.429688 155.867188 122.558594 C 155.867188 120.6875 157.382812 119.144531 159.277344 119.144531 C 166.292969 119.144531 172.59375 122.132812 177.046875 126.847656 L 177.046875 90.855469 C 177.046875 90.855469 176.457031 82.539062 171.410156 79.292969 C 168.730469 77.515625 164.871094 77.539062 160.058594 79.339844 C 159.917969 79.410156 152.878906 81.921875 146.863281 86.09375 C 151.765625 88.226562 155.960938 91.875 158.636719 96.707031 C 160.628906 100.332031 161.695312 104.457031 161.695312 108.601562 C 161.695312 110.449219 160.203125 111.988281 158.304688 111.988281 C 156.433594 111.988281 154.917969 110.449219 154.917969 108.601562 C 154.917969 105.59375 154.160156 102.605469 152.691406 99.976562 C 149.585938 94.363281 143.640625 90.855469 137.171875 90.855469 C 127.386719 90.855469 119.402344 98.816406 119.402344 108.625 C 119.402344 111.539062 120.253906 114.3125 121.582031 116.847656 C 121.722656 116.847656 121.839844 116.824219 121.960938 116.824219 C 132.71875 116.824219 142.359375 122.769531 147.171875 132.414062 C 148 134.074219 147.335938 136.085938 145.652344 136.917969 C 143.996094 137.746094 141.980469 137.082031 141.128906 135.421875 C 137.480469 128.101562 130.132812 123.578125 121.960938 123.578125 C 110.160156 123.578125 100.515625 133.171875 100.515625 144.996094 C 100.515625 146.558594 100.777344 148.101562 101.085938 149.617188 C 103.621094 148.859375 106.226562 148.359375 109.023438 148.359375 C 110.871094 148.359375 112.433594 149.851562 112.433594 151.726562 C 112.433594 153.597656 110.871094 155.113281 109.023438 155.113281 C 105.917969 155.113281 102.957031 155.753906 100.183594 157.007812 C 100.113281 157.03125 100.066406 157.078125 100.019531 157.105469 L 99.972656 157.105469 C 92.4375 160.609375 87.605469 168.214844 87.605469 176.53125 C 87.605469 188.355469 97.199219 197.953125 109.023438 197.953125 C 110.871094 197.953125 112.433594 199.46875 112.433594 201.386719 C 112.433594 203.234375 110.894531 204.777344 109.023438 204.777344 C 103.335938 204.777344 98.078125 203.023438 93.667969 200.15625 C 92.863281 202.289062 92.367188 204.65625 92.367188 207.027344 C 92.367188 216.648438 98.835938 225.152344 108.144531 227.710938 Z M 108.144531 227.710938 " fill-opacity="1" fill-rule="nonzero"/></g><path fill="#10b981" d="M 127.007812 198.640625 C 136.792969 198.046875 144.257812 189.589844 143.710938 179.800781 C 143.664062 179.351562 143.734375 178.925781 143.878906 178.5 C 138.734375 173.996094 135.15625 168.050781 133.855469 161.226562 C 133.476562 159.402344 134.660156 157.625 136.507812 157.269531 C 138.378906 156.914062 140.15625 158.121094 140.488281 159.921875 C 141.722656 166.25 145.324219 171.722656 150.628906 175.347656 C 155.960938 178.972656 162.359375 180.300781 168.660156 179.066406 C 170.4375 178.710938 172.308594 179.945312 172.640625 181.746094 C 172.972656 183.59375 171.765625 185.371094 169.917969 185.726562 C 167.972656 186.082031 166.03125 186.269531 164.089844 186.269531 C 159.300781 186.269531 154.585938 185.132812 150.296875 182.953125 C 149.277344 194.894531 139.753906 204.679688 127.433594 205.414062 C 127.339844 205.414062 127.292969 205.414062 127.242188 205.414062 C 125.441406 205.414062 123.949219 204.019531 123.832031 202.21875 C 123.761719 200.34375 125.136719 198.734375 127.007812 198.640625 Z M 127.007812 198.640625 " fill-opacity="1" fill-rule="nonzero"/><g clip-path="url(#55c870f15d)"><g clip-path="url(#c676630cd8)"><path fill="#10b981" d="M 83.9375 70.453125 L 186.199219 70.453125 L 186.199219 283.769531 L 83.9375 283.769531 Z M 83.9375 70.453125 " fill-opacity="1" fill-rule="nonzero"/></g></g></svg>