<svg xmlns="http://www.w3.org/2000/svg" xmlns:xlink="http://www.w3.org/1999/xlink" width="500" zoomAndPan="magnify" viewBox="0 0 375 374.999991" height="500" preserveAspectRatio="xMidYMid meet" version="1.0"><defs><clipPath id="5c6eccd92a"><path d="M 191 71 L 293.871094 71 L 293.871094 283.453125 L 191 283.453125 Z M 191 71 " clip-rule="nonzero"/></clipPath><clipPath id="6bb524f2c3"><path d="M 71.664062 71.5625 L 184.914062 71.5625 L 184.914062 283.707031 L 71.664062 283.707031 Z M 71.664062 71.5625 " clip-rule="nonzero"/></clipPath><clipPath id="13625856f0"><path d="M 86.535156 196 L 187.785156 196 L 187.785156 210.96875 L 86.535156 210.96875 Z M 86.535156 196 " clip-rule="nonzero"/></clipPath><clipPath id="1c2a1c7e26"><path d="M 134 181 L 187.785156 181 L 187.785156 188 L 134 188 Z M 134 181 " clip-rule="nonzero"/></clipPath><clipPath id="a1f84d47a3"><path d="M 142 192 L 187.785156 192 L 187.785156 202 L 142 202 Z M 142 192 " clip-rule="nonzero"/></clipPath><clipPath id="6b87e1d002"><path d="M 101 170 L 187.785156 170 L 187.785156 184 L 101 184 Z M 101 170 " clip-rule="nonzero"/></clipPath><clipPath id="4fe09411f6"><path d="M 107 163.71875 L 187.785156 163.71875 L 187.785156 177 L 107 177 Z M 107 163.71875 " clip-rule="nonzero"/></clipPath><clipPath id="469fad0629"><path d="M 92 189 L 187.785156 189 L 187.785156 204 L 92 204 Z M 92 189 " clip-rule="nonzero"/></clipPath></defs><path fill="#ffffff" d="M 212.300781 231.265625 C 210.570312 231.90625 209.695312 233.847656 210.335938 235.625 C 210.953125 237.378906 212.941406 238.304688 214.695312 237.664062 C 223.863281 234.226562 234.125 238.917969 237.558594 248.042969 C 238.199219 249.769531 240.140625 250.695312 241.894531 250.054688 C 243.671875 249.414062 244.527344 247.425781 243.863281 245.648438 C 239.171875 233.019531 224.976562 226.550781 212.300781 231.265625 Z M 212.300781 231.265625 " fill-opacity="1" fill-rule="nonzero"/><g clip-path="url(#5c6eccd92a)"><path fill="#ffffff" d="M 294.566406 176.53125 C 294.566406 166.488281 289.140625 157.269531 280.5625 152.246094 C 281.15625 149.875 281.605469 147.460938 281.605469 144.996094 C 281.605469 132.035156 272.792969 121.207031 260.875 117.914062 C 262.058594 114.976562 262.722656 111.847656 262.722656 108.625 C 262.722656 95.097656 251.730469 84.078125 238.199219 84.078125 C 237.75 84.078125 237.324219 84.148438 236.824219 84.171875 C 229.457031 77.207031 218.082031 73.15625 217.585938 72.988281 C 210.738281 70.40625 204.863281 70.597656 200.21875 73.628906 C 192.328125 78.792969 191.59375 90.191406 191.59375 90.664062 L 191.570312 143.691406 L 191.570312 143.714844 C 191.570312 143.714844 191.570312 143.738281 191.570312 143.738281 L 191.570312 234.464844 C 191.570312 234.511719 191.570312 234.511719 191.570312 234.511719 L 191.570312 258.488281 C 191.570312 271.996094 204.507812 283.011719 220.382812 283.011719 C 233.152344 283.011719 244.121094 275.882812 247.796875 265.742188 C 248.457031 265.789062 249.121094 265.929688 249.738281 265.929688 C 263.269531 265.929688 274.285156 254.960938 274.285156 241.40625 C 274.285156 238.492188 273.742188 235.578125 272.722656 232.902344 C 282.957031 228.492188 289.804688 218.351562 289.804688 207.027344 C 289.804688 202.953125 288.90625 198.972656 287.222656 195.320312 C 291.773438 190.324219 294.566406 183.78125 294.566406 176.53125 Z M 267.222656 227.710938 C 267.105469 227.757812 267.035156 227.804688 266.917969 227.855469 C 266.773438 227.925781 266.585938 227.925781 266.464844 228.019531 C 266.371094 228.066406 266.347656 228.113281 266.253906 228.160156 C 266.0625 228.351562 265.898438 228.492188 265.730469 228.683594 C 265.589844 228.824219 265.449219 228.945312 265.375 229.085938 C 265.210938 229.324219 265.140625 229.511719 265.019531 229.796875 C 264.972656 229.914062 264.902344 230.058594 264.855469 230.246094 C 264.808594 230.484375 264.808594 230.746094 264.808594 231.027344 C 264.808594 231.21875 264.808594 231.359375 264.855469 231.503906 C 264.855469 231.644531 264.808594 231.785156 264.855469 231.882812 C 264.902344 231.976562 264.996094 232.023438 265.019531 232.117188 C 265.117188 232.285156 265.117188 232.472656 265.210938 232.617188 C 266.703125 235.292969 267.554688 238.304688 267.554688 241.40625 C 267.554688 251.214844 259.523438 259.175781 249.738281 259.175781 C 248.53125 259.175781 247.34375 259.082031 246.183594 258.796875 L 246.136719 258.796875 C 244.335938 258.464844 242.511719 259.628906 242.109375 261.429688 C 240.332031 270.003906 231.164062 276.261719 220.382812 276.261719 C 208.179688 276.261719 198.324219 268.253906 198.324219 258.488281 L 198.324219 234.464844 C 198.324219 224.703125 206.308594 216.695312 216.09375 216.695312 C 217.964844 216.695312 219.503906 215.203125 219.503906 213.304688 C 219.503906 211.457031 217.988281 209.917969 216.09375 209.917969 C 209.078125 209.917969 202.777344 212.925781 198.324219 217.640625 L 198.324219 143.714844 C 198.324219 133.90625 206.308594 125.945312 216.09375 125.945312 C 217.964844 125.945312 219.503906 124.429688 219.503906 122.558594 C 219.503906 120.6875 217.988281 119.144531 216.09375 119.144531 C 209.078125 119.144531 202.777344 122.132812 198.324219 126.847656 L 198.324219 90.855469 C 198.324219 90.855469 198.914062 82.539062 203.960938 79.292969 C 206.640625 77.515625 210.5 77.539062 215.3125 79.339844 C 215.453125 79.410156 222.492188 81.921875 228.507812 86.09375 C 223.605469 88.226562 219.410156 91.875 216.734375 96.707031 C 214.742188 100.332031 213.675781 104.457031 213.675781 108.601562 C 213.675781 110.449219 215.167969 111.988281 217.0625 111.988281 C 218.9375 111.988281 220.453125 110.449219 220.453125 108.601562 C 220.453125 105.59375 221.210938 102.605469 222.679688 99.976562 C 225.785156 94.363281 231.730469 90.855469 238.199219 90.855469 C 247.984375 90.855469 255.96875 98.816406 255.96875 108.625 C 255.96875 111.539062 255.117188 114.3125 253.789062 116.847656 C 253.648438 116.847656 253.53125 116.824219 253.410156 116.824219 C 242.652344 116.824219 233.011719 122.769531 228.199219 132.414062 C 227.371094 134.074219 228.035156 136.085938 229.71875 136.917969 C 231.375 137.746094 233.390625 137.082031 234.242188 135.421875 C 237.890625 128.101562 245.238281 123.578125 253.410156 123.578125 C 265.210938 123.578125 274.855469 133.171875 274.855469 144.996094 C 274.855469 146.558594 274.59375 148.101562 274.285156 149.617188 C 271.75 148.859375 269.144531 148.359375 266.347656 148.359375 C 264.5 148.359375 262.9375 149.851562 262.9375 151.726562 C 262.9375 153.597656 264.5 155.113281 266.347656 155.113281 C 269.453125 155.113281 272.414062 155.753906 275.1875 157.007812 C 275.257812 157.03125 275.304688 157.078125 275.351562 157.105469 L 275.398438 157.105469 C 282.933594 160.609375 287.765625 168.214844 287.765625 176.53125 C 287.765625 188.355469 278.171875 197.953125 266.347656 197.953125 C 264.5 197.953125 262.9375 199.46875 262.9375 201.386719 C 262.9375 203.234375 264.476562 204.777344 266.347656 204.777344 C 272.035156 204.777344 277.292969 203.023438 281.703125 200.15625 C 282.507812 202.289062 283.003906 204.65625 283.003906 207.027344 C 283.003906 216.648438 276.535156 225.152344 267.222656 227.710938 Z M 267.222656 227.710938 " fill-opacity="1" fill-rule="nonzero"/></g><path fill="#ffffff" d="M 248.363281 198.640625 C 238.578125 198.046875 231.113281 189.589844 231.660156 179.800781 C 231.707031 179.351562 231.636719 178.925781 231.492188 178.5 C 236.636719 173.996094 240.214844 168.050781 241.515625 161.226562 C 241.894531 159.402344 240.710938 157.625 238.863281 157.269531 C 236.992188 156.914062 235.214844 158.121094 234.882812 159.921875 C 233.648438 166.25 230.046875 171.722656 224.742188 175.347656 C 219.410156 178.972656 213.011719 180.300781 206.710938 179.066406 C 204.933594 178.710938 203.0625 179.945312 202.730469 181.746094 C 202.398438 183.59375 203.605469 185.371094 205.453125 185.726562 C 207.398438 186.082031 209.339844 186.269531 211.28125 186.269531 C 216.070312 186.269531 220.785156 185.132812 225.074219 182.953125 C 226.09375 194.894531 235.617188 204.679688 247.9375 205.414062 C 248.03125 205.414062 248.078125 205.414062 248.128906 205.414062 C 249.929688 205.414062 251.421875 204.019531 251.539062 202.21875 C 251.609375 200.34375 250.234375 198.734375 248.363281 198.640625 Z M 248.363281 198.640625 " fill-opacity="1" fill-rule="nonzero"/><g clip-path="url(#6bb524f2c3)"><path fill="#ffffff" d="M 111.703125 247.339844 C 111.703125 245.519531 111.839844 243.742188 112.089844 242.007812 C 89.410156 239.898438 71.664062 220.863281 71.664062 197.683594 C 71.664062 183.28125 78.527344 170.476562 89.164062 162.332031 C 88.195312 159.066406 87.671875 155.605469 87.671875 152.023438 C 87.671875 135.828125 98.234375 122.101562 112.875 117.320312 C 112.101562 114.371094 111.6875 111.269531 111.6875 108.085938 C 111.703125 87.921875 128.082031 71.5625 148.300781 71.5625 C 168.519531 71.5625 184.898438 87.921875 184.898438 108.085938 L 184.898438 247.339844 C 184.898438 267.515625 168.507812 283.863281 148.300781 283.863281 C 128.09375 283.863281 111.703125 267.503906 111.703125 247.339844 Z M 111.703125 247.339844 " fill-opacity="1" fill-rule="nonzero"/></g><g clip-path="url(#13625856f0)"><path fill="#000000" d="M 117.046875 196.101562 L 105.769531 207.417969 L 92.78125 207.417969 C 92.75 207.15625 92.6875 206.898438 92.59375 206.652344 C 92.5 206.40625 92.375 206.175781 92.222656 205.960938 C 92.070312 205.742188 91.894531 205.550781 91.691406 205.378906 C 91.492188 205.210938 91.269531 205.066406 91.035156 204.953125 C 90.796875 204.839844 90.546875 204.753906 90.289062 204.703125 C 90.03125 204.652344 89.769531 204.632812 89.507812 204.648438 C 89.246094 204.664062 88.988281 204.710938 88.738281 204.792969 C 88.484375 204.875 88.25 204.984375 88.027344 205.125 C 87.800781 205.265625 87.601562 205.433594 87.417969 205.625 C 87.238281 205.816406 87.085938 206.027344 86.957031 206.257812 C 86.828125 206.492188 86.734375 206.734375 86.667969 206.992188 C 86.601562 207.246094 86.570312 207.507812 86.570312 207.769531 C 86.570312 208.035156 86.601562 208.296875 86.667969 208.550781 C 86.734375 208.808594 86.828125 209.050781 86.957031 209.28125 C 87.085938 209.515625 87.238281 209.726562 87.417969 209.917969 C 87.601562 210.109375 87.800781 210.277344 88.027344 210.417969 C 88.25 210.558594 88.484375 210.667969 88.738281 210.75 C 88.988281 210.828125 89.246094 210.878906 89.507812 210.890625 C 89.769531 210.90625 90.03125 210.890625 90.289062 210.835938 C 90.546875 210.785156 90.796875 210.703125 91.035156 210.589844 C 91.269531 210.472656 91.492188 210.332031 91.691406 210.160156 C 91.894531 209.992188 92.070312 209.796875 92.222656 209.582031 C 92.375 209.367188 92.5 209.136719 92.59375 208.890625 C 92.6875 208.640625 92.75 208.386719 92.78125 208.125 L 106.058594 208.125 L 117.335938 196.808594 L 133.960938 196.808594 L 144.535156 207.417969 L 187.675781 207.417969 L 187.675781 206.710938 L 144.824219 206.710938 L 134.25 196.101562 Z M 89.707031 210.191406 C 89.386719 210.191406 89.078125 210.128906 88.78125 210.007812 C 88.488281 209.886719 88.226562 209.710938 88 209.484375 C 87.773438 209.257812 87.597656 208.996094 87.472656 208.703125 C 87.351562 208.40625 87.289062 208.097656 87.289062 207.777344 C 87.289062 207.453125 87.347656 207.144531 87.472656 206.847656 C 87.59375 206.550781 87.765625 206.289062 87.992188 206.0625 C 88.21875 205.835938 88.480469 205.660156 88.773438 205.539062 C 89.070312 205.414062 89.378906 205.351562 89.695312 205.351562 C 90.015625 205.351562 90.324219 205.414062 90.621094 205.535156 C 90.914062 205.65625 91.175781 205.832031 91.402344 206.058594 C 91.628906 206.285156 91.804688 206.546875 91.925781 206.84375 C 92.046875 207.140625 92.109375 207.449219 92.109375 207.769531 C 92.109375 208.089844 92.050781 208.398438 91.925781 208.695312 C 91.804688 208.992188 91.632812 209.253906 91.40625 209.480469 C 91.179688 209.707031 90.921875 209.878906 90.625 210.003906 C 90.332031 210.128906 90.027344 210.1875 89.707031 210.191406 Z M 89.707031 210.191406 " fill-opacity="1" fill-rule="nonzero"/></g><g clip-path="url(#1c2a1c7e26)"><path fill="#000000" d="M 134.574219 184.429688 C 134.582031 184.820312 134.660156 185.199219 134.8125 185.5625 C 134.960938 185.925781 135.171875 186.25 135.445312 186.53125 C 135.714844 186.816406 136.03125 187.039062 136.386719 187.203125 C 136.742188 187.367188 137.113281 187.460938 137.503906 187.480469 C 137.898438 187.503906 138.277344 187.453125 138.652344 187.332031 C 139.023438 187.210938 139.359375 187.023438 139.660156 186.773438 C 139.964844 186.523438 140.210938 186.226562 140.398438 185.882812 C 140.589844 185.539062 140.710938 185.171875 140.761719 184.78125 L 187.667969 184.78125 L 187.667969 184.074219 L 140.769531 184.074219 C 140.71875 183.6875 140.597656 183.320312 140.40625 182.976562 C 140.214844 182.632812 139.96875 182.335938 139.667969 182.085938 C 139.367188 181.835938 139.03125 181.648438 138.65625 181.527344 C 138.285156 181.402344 137.902344 181.351562 137.511719 181.375 C 137.121094 181.398438 136.75 181.492188 136.390625 181.65625 C 136.035156 181.820312 135.722656 182.042969 135.449219 182.324219 C 135.179688 182.609375 134.96875 182.933594 134.820312 183.296875 C 134.667969 183.65625 134.589844 184.035156 134.582031 184.429688 Z M 140.09375 184.429688 C 140.09375 184.75 140.03125 185.058594 139.910156 185.355469 C 139.789062 185.652344 139.613281 185.914062 139.386719 186.140625 C 139.160156 186.367188 138.902344 186.542969 138.605469 186.664062 C 138.308594 186.785156 138.003906 186.847656 137.683594 186.847656 C 137.363281 186.847656 137.054688 186.785156 136.761719 186.664062 C 136.464844 186.542969 136.203125 186.367188 135.980469 186.140625 C 135.753906 185.914062 135.578125 185.652344 135.457031 185.355469 C 135.332031 185.058594 135.273438 184.75 135.273438 184.429688 C 135.273438 184.109375 135.332031 183.800781 135.457031 183.503906 C 135.578125 183.207031 135.753906 182.945312 135.980469 182.71875 C 136.203125 182.492188 136.464844 182.316406 136.761719 182.195312 C 137.054688 182.070312 137.363281 182.011719 137.683594 182.011719 C 138.003906 182.007812 138.3125 182.070312 138.609375 182.191406 C 138.902344 182.3125 139.164062 182.488281 139.390625 182.714844 C 139.617188 182.941406 139.792969 183.203125 139.917969 183.5 C 140.039062 183.796875 140.101562 184.109375 140.101562 184.429688 Z M 140.09375 184.429688 " fill-opacity="1" fill-rule="nonzero"/></g><g clip-path="url(#a1f84d47a3)"><path fill="#000000" d="M 142.328125 195.746094 C 142.335938 196.140625 142.414062 196.515625 142.5625 196.878906 C 142.714844 197.242188 142.925781 197.566406 143.195312 197.847656 C 143.46875 198.132812 143.78125 198.355469 144.136719 198.519531 C 144.496094 198.683594 144.867188 198.777344 145.257812 198.800781 C 145.648438 198.820312 146.03125 198.773438 146.402344 198.648438 C 146.777344 198.527344 147.113281 198.339844 147.414062 198.089844 C 147.714844 197.839844 147.960938 197.542969 148.152344 197.199219 C 148.34375 196.855469 148.464844 196.488281 148.515625 196.101562 L 152.84375 196.101562 L 158.660156 201.933594 L 171.28125 201.933594 L 176.566406 196.628906 L 187.695312 196.628906 L 187.695312 195.921875 L 176.25 195.921875 L 170.964844 201.226562 L 158.917969 201.226562 L 153.105469 195.394531 L 148.523438 195.394531 C 148.472656 195.003906 148.351562 194.636719 148.160156 194.292969 C 147.96875 193.949219 147.722656 193.652344 147.421875 193.402344 C 147.121094 193.152344 146.78125 192.964844 146.410156 192.84375 C 146.039062 192.722656 145.65625 192.671875 145.265625 192.691406 C 144.875 192.714844 144.5 192.808594 144.144531 192.972656 C 143.789062 193.136719 143.476562 193.359375 143.203125 193.644531 C 142.933594 193.925781 142.722656 194.25 142.570312 194.613281 C 142.421875 194.976562 142.34375 195.351562 142.335938 195.746094 Z M 147.847656 195.746094 C 147.847656 196.066406 147.785156 196.375 147.664062 196.671875 C 147.539062 196.96875 147.367188 197.230469 147.140625 197.457031 C 146.914062 197.683594 146.652344 197.859375 146.359375 197.980469 C 146.0625 198.105469 145.753906 198.164062 145.4375 198.164062 C 145.117188 198.164062 144.808594 198.105469 144.511719 197.980469 C 144.21875 197.859375 143.957031 197.683594 143.730469 197.457031 C 143.503906 197.230469 143.332031 196.96875 143.210938 196.671875 C 143.085938 196.375 143.027344 196.066406 143.027344 195.746094 C 143.027344 195.425781 143.085938 195.117188 143.210938 194.820312 C 143.332031 194.523438 143.503906 194.261719 143.730469 194.035156 C 143.957031 193.808594 144.21875 193.632812 144.511719 193.511719 C 144.808594 193.386719 145.117188 193.328125 145.4375 193.328125 C 145.757812 193.328125 146.066406 193.386719 146.359375 193.507812 C 146.65625 193.632812 146.917969 193.804688 147.144531 194.035156 C 147.371094 194.261719 147.546875 194.523438 147.667969 194.820312 C 147.792969 195.117188 147.855469 195.425781 147.855469 195.746094 Z M 147.847656 195.746094 " fill-opacity="1" fill-rule="nonzero"/></g><g clip-path="url(#6b87e1d002)"><path fill="#000000" d="M 128.878906 170.019531 L 118.765625 180.140625 L 107.488281 180.140625 C 107.460938 179.878906 107.398438 179.625 107.304688 179.378906 C 107.207031 179.132812 107.085938 178.898438 106.933594 178.683594 C 106.78125 178.46875 106.601562 178.277344 106.402344 178.105469 C 106.199219 177.933594 105.980469 177.792969 105.742188 177.679688 C 105.503906 177.5625 105.257812 177.480469 105 177.429688 C 104.742188 177.378906 104.480469 177.359375 104.21875 177.375 C 103.953125 177.390625 103.695312 177.4375 103.445312 177.519531 C 103.195312 177.597656 102.957031 177.707031 102.734375 177.847656 C 102.511719 177.992188 102.308594 178.15625 102.128906 178.347656 C 101.949219 178.542969 101.792969 178.753906 101.667969 178.984375 C 101.539062 179.214844 101.441406 179.460938 101.378906 179.714844 C 101.3125 179.972656 101.277344 180.230469 101.277344 180.496094 C 101.277344 180.761719 101.3125 181.019531 101.378906 181.277344 C 101.441406 181.53125 101.539062 181.777344 101.667969 182.007812 C 101.792969 182.238281 101.949219 182.449219 102.128906 182.644531 C 102.308594 182.835938 102.511719 183.003906 102.734375 183.144531 C 102.957031 183.285156 103.195312 183.394531 103.445312 183.472656 C 103.695312 183.554688 103.953125 183.601562 104.21875 183.617188 C 104.480469 183.632812 104.742188 183.613281 105 183.5625 C 105.257812 183.511719 105.503906 183.429688 105.742188 183.3125 C 105.980469 183.199219 106.199219 183.058594 106.402344 182.886719 C 106.601562 182.714844 106.78125 182.523438 106.933594 182.308594 C 107.085938 182.09375 107.207031 181.859375 107.304688 181.613281 C 107.398438 181.367188 107.460938 181.113281 107.488281 180.851562 L 119.054688 180.851562 L 129.140625 170.726562 L 137.042969 170.726562 L 145.589844 179.300781 L 187.324219 179.300781 L 187.324219 178.59375 L 145.878906 178.59375 L 137.335938 170.019531 Z M 104.386719 182.914062 C 104.070312 182.914062 103.761719 182.855469 103.464844 182.730469 C 103.171875 182.609375 102.910156 182.433594 102.683594 182.207031 C 102.457031 181.980469 102.285156 181.722656 102.164062 181.425781 C 102.039062 181.128906 101.976562 180.820312 101.976562 180.5 C 101.976562 180.179688 102.035156 179.871094 102.160156 179.574219 C 102.28125 179.28125 102.453125 179.019531 102.679688 178.789062 C 102.902344 178.5625 103.164062 178.386719 103.457031 178.265625 C 103.753906 178.140625 104.058594 178.078125 104.378906 178.078125 C 104.699219 178.074219 105.003906 178.136719 105.300781 178.257812 C 105.597656 178.378906 105.855469 178.550781 106.082031 178.777344 C 106.3125 179.003906 106.484375 179.261719 106.609375 179.558594 C 106.734375 179.855469 106.796875 180.160156 106.796875 180.480469 C 106.800781 180.804688 106.742188 181.113281 106.617188 181.410156 C 106.496094 181.710938 106.324219 181.972656 106.097656 182.203125 C 105.871094 182.429688 105.609375 182.605469 105.3125 182.730469 C 105.015625 182.851562 104.707031 182.914062 104.386719 182.914062 Z M 104.386719 182.914062 " fill-opacity="1" fill-rule="nonzero"/></g><g clip-path="url(#4fe09411f6)"><path fill="#000000" d="M 118.371094 172.628906 L 113.8125 172.628906 C 113.78125 172.367188 113.71875 172.113281 113.625 171.867188 C 113.53125 171.621094 113.40625 171.386719 113.253906 171.171875 C 113.101562 170.957031 112.925781 170.765625 112.722656 170.59375 C 112.523438 170.421875 112.300781 170.28125 112.066406 170.167969 C 111.828125 170.050781 111.578125 169.96875 111.320312 169.917969 C 111.0625 169.867188 110.800781 169.847656 110.539062 169.863281 C 110.277344 169.878906 110.019531 169.925781 109.769531 170.007812 C 109.515625 170.085938 109.28125 170.195312 109.058594 170.335938 C 108.835938 170.476562 108.632812 170.644531 108.453125 170.835938 C 108.269531 171.027344 108.117188 171.242188 107.988281 171.472656 C 107.863281 171.703125 107.765625 171.949219 107.699219 172.203125 C 107.632812 172.460938 107.601562 172.71875 107.601562 172.984375 C 107.601562 173.25 107.632812 173.507812 107.699219 173.765625 C 107.765625 174.019531 107.863281 174.265625 107.988281 174.496094 C 108.117188 174.726562 108.269531 174.9375 108.453125 175.132812 C 108.632812 175.324219 108.835938 175.488281 109.058594 175.628906 C 109.28125 175.773438 109.515625 175.882812 109.769531 175.960938 C 110.019531 176.042969 110.277344 176.089844 110.539062 176.105469 C 110.800781 176.121094 111.0625 176.101562 111.320312 176.050781 C 111.578125 176 111.828125 175.917969 112.066406 175.800781 C 112.300781 175.6875 112.523438 175.546875 112.722656 175.375 C 112.925781 175.203125 113.101562 175.011719 113.253906 174.796875 C 113.40625 174.582031 113.53125 174.347656 113.625 174.101562 C 113.71875 173.855469 113.78125 173.601562 113.8125 173.339844 L 118.667969 173.339844 L 127.554688 164.417969 L 139.28125 164.417969 L 147.085938 172.25 L 187.316406 172.25 L 187.316406 171.542969 L 147.382812 171.542969 L 139.570312 163.710938 L 127.265625 163.710938 Z M 110.730469 175.402344 C 110.410156 175.402344 110.105469 175.34375 109.808594 175.21875 C 109.511719 175.097656 109.253906 174.921875 109.027344 174.695312 C 108.800781 174.46875 108.625 174.207031 108.503906 173.910156 C 108.382812 173.613281 108.320312 173.304688 108.320312 172.984375 C 108.320312 172.664062 108.382812 172.355469 108.503906 172.058594 C 108.625 171.761719 108.800781 171.5 109.027344 171.273438 C 109.253906 171.046875 109.511719 170.871094 109.808594 170.75 C 110.105469 170.625 110.410156 170.566406 110.730469 170.566406 C 111.050781 170.566406 111.359375 170.625 111.652344 170.75 C 111.949219 170.871094 112.210938 171.046875 112.433594 171.273438 C 112.660156 171.5 112.835938 171.761719 112.957031 172.058594 C 113.082031 172.355469 113.140625 172.664062 113.140625 172.984375 C 113.140625 173.304688 113.082031 173.613281 112.957031 173.910156 C 112.835938 174.207031 112.660156 174.46875 112.433594 174.695312 C 112.210938 174.921875 111.949219 175.097656 111.652344 175.21875 C 111.359375 175.34375 111.050781 175.402344 110.730469 175.402344 Z M 110.730469 175.402344 " fill-opacity="1" fill-rule="nonzero"/></g><g clip-path="url(#469fad0629)"><path fill="#000000" d="M 98.363281 200.34375 C 98.332031 200.082031 98.269531 199.828125 98.175781 199.578125 C 98.082031 199.332031 97.957031 199.101562 97.804688 198.886719 C 97.652344 198.671875 97.476562 198.476562 97.273438 198.308594 C 97.074219 198.136719 96.851562 197.996094 96.617188 197.878906 C 96.378906 197.765625 96.128906 197.683594 95.871094 197.632812 C 95.613281 197.578125 95.351562 197.5625 95.089844 197.578125 C 94.828125 197.589844 94.570312 197.640625 94.320312 197.71875 C 94.066406 197.800781 93.832031 197.910156 93.609375 198.050781 C 93.386719 198.191406 93.183594 198.359375 93 198.550781 C 92.820312 198.742188 92.667969 198.953125 92.539062 199.1875 C 92.410156 199.417969 92.316406 199.660156 92.25 199.917969 C 92.183594 200.171875 92.152344 200.433594 92.152344 200.699219 C 92.152344 200.960938 92.183594 201.222656 92.25 201.476562 C 92.316406 201.734375 92.410156 201.976562 92.539062 202.210938 C 92.667969 202.441406 92.820312 202.652344 93 202.84375 C 93.183594 203.035156 93.386719 203.203125 93.609375 203.34375 C 93.832031 203.484375 94.066406 203.59375 94.320312 203.675781 C 94.570312 203.757812 94.828125 203.804688 95.089844 203.820312 C 95.351562 203.835938 95.613281 203.816406 95.871094 203.765625 C 96.128906 203.714844 96.378906 203.628906 96.617188 203.515625 C 96.851562 203.402344 97.074219 203.257812 97.273438 203.089844 C 97.476562 202.917969 97.652344 202.726562 97.804688 202.507812 C 97.957031 202.292969 98.082031 202.0625 98.175781 201.816406 C 98.269531 201.570312 98.332031 201.3125 98.363281 201.050781 L 104.917969 201.050781 L 115.339844 190.5625 L 187.324219 190.5625 L 187.324219 189.855469 L 115.050781 189.855469 L 104.59375 200.34375 Z M 95.28125 203.117188 C 94.960938 203.117188 94.65625 203.054688 94.359375 202.933594 C 94.0625 202.808594 93.804688 202.636719 93.578125 202.40625 C 93.351562 202.179688 93.175781 201.917969 93.054688 201.625 C 92.933594 201.328125 92.871094 201.019531 92.871094 200.699219 C 92.871094 200.375 92.933594 200.066406 93.054688 199.773438 C 93.175781 199.476562 93.351562 199.214844 93.578125 198.988281 C 93.804688 198.761719 94.0625 198.585938 94.359375 198.460938 C 94.65625 198.339844 94.960938 198.277344 95.28125 198.277344 C 95.601562 198.277344 95.910156 198.339844 96.203125 198.460938 C 96.5 198.585938 96.761719 198.761719 96.984375 198.988281 C 97.210938 199.214844 97.386719 199.476562 97.507812 199.773438 C 97.628906 200.066406 97.691406 200.375 97.691406 200.699219 C 97.691406 201.019531 97.628906 201.328125 97.507812 201.625 C 97.386719 201.917969 97.210938 202.179688 96.984375 202.40625 C 96.761719 202.636719 96.5 202.808594 96.203125 202.933594 C 95.910156 203.054688 95.601562 203.117188 95.28125 203.117188 Z M 95.28125 203.117188 " fill-opacity="1" fill-rule="nonzero"/></g></svg>