<svg xmlns="http://www.w3.org/2000/svg" xmlns:xlink="http://www.w3.org/1999/xlink" width="500" zoomAndPan="magnify" viewBox="0 0 375 374.999991" height="500" preserveAspectRatio="xMidYMid meet" version="1.0"><defs><clipPath id="22749d9a4f"><path d="M 191 71 L 293.871094 71 L 293.871094 283.453125 L 191 283.453125 Z M 191 71 " clip-rule="nonzero"/></clipPath><clipPath id="0ea1d2c02f"><path d="M 81.878906 71 L 185 71 L 185 283.453125 L 81.878906 283.453125 Z M 81.878906 71 " clip-rule="nonzero"/></clipPath><clipPath id="ba30eba431"><path d="M 121.125 165.226562 L 136.273438 165.226562 L 136.273438 189.332031 L 121.125 189.332031 Z M 121.125 165.226562 " clip-rule="nonzero"/></clipPath><clipPath id="9e6b849de9"><path d="M 135.675781 172.800781 C 129.824219 179.175781 128.476562 184.199219 126.976562 185.324219 C 126.148438 185.851562 125.175781 185.925781 124.648438 185.699219 C 124.050781 185.398438 123.75 184.726562 123.449219 183.675781 C 122.773438 180.675781 123 167.851562 124.648438 165.898438 C 125.175781 165.226562 126.300781 165.148438 126.824219 165.375 C 127.425781 165.601562 128.023438 166.351562 128.175781 167.25 C 128.476562 169.050781 126.300781 172.726562 125.773438 175.875 C 125.175781 179.398438 126.148438 185.324219 125.175781 187.425781 C 124.726562 188.398438 124.050781 189.226562 123.375 189.300781 C 122.773438 189.300781 121.574219 188.398438 121.351562 187.726562 C 121.125 186.976562 122.023438 186.148438 122.25 184.800781 C 122.699219 182.25 121.5 174.824219 122.476562 173.023438 C 122.851562 172.273438 123.523438 171.976562 124.050781 171.898438 C 124.726562 171.898438 125.773438 172.351562 126.148438 173.023438 C 126.898438 174.148438 126.824219 177.523438 126.375 178.875 C 126.074219 179.851562 125.398438 180.75 124.726562 180.976562 C 124.125 181.125 122.773438 180.523438 122.324219 179.925781 C 122.023438 179.476562 122.023438 178.5 122.25 177.976562 C 122.550781 177.449219 123.300781 176.851562 123.898438 176.773438 C 124.5 176.699219 125.398438 177 125.773438 177.449219 C 126.148438 177.824219 126.449219 178.800781 126.300781 179.324219 C 126.074219 180 125.023438 180.976562 124.273438 181.050781 C 123.601562 181.050781 122.625 180.375 122.175781 179.550781 C 121.5 178.273438 121.875 174.75 122.25 173.476562 C 122.476562 172.875 122.699219 172.5 123.148438 172.273438 C 123.601562 171.976562 124.5 171.824219 125.101562 172.050781 C 125.625 172.273438 126.074219 172.726562 126.375 173.550781 C 127.050781 175.351562 126.898438 180.898438 126.375 183.675781 C 126.074219 185.699219 125.625 187.949219 124.648438 188.699219 C 123.976562 189.226562 122.625 189.226562 122.023438 188.851562 C 121.574219 188.625 121.425781 188.101562 121.273438 187.273438 C 120.898438 185.101562 121.351562 178.726562 121.949219 174.976562 C 122.550781 171.675781 123.300781 167.175781 124.648438 165.898438 C 125.25 165.300781 126.300781 165.148438 126.824219 165.375 C 127.425781 165.523438 127.800781 165.976562 128.101562 166.800781 C 128.925781 168.976562 128.699219 177.75 128.324219 180.976562 C 128.101562 182.699219 128.023438 184.199219 127.273438 184.949219 C 126.675781 185.550781 125.25 186 124.648438 185.699219 C 124.050781 185.398438 123.523438 184.199219 123.601562 183.148438 C 123.675781 181.050781 126.675781 176.550781 128.550781 174.148438 C 130.199219 172.050781 132.523438 169.273438 133.949219 169.125 C 134.773438 168.976562 135.824219 169.726562 136.125 170.324219 C 136.425781 170.925781 135.675781 172.800781 135.675781 172.800781 " clip-rule="nonzero"/></clipPath><clipPath id="943a620701"><path d="M 90.425781 142 L 164 142 L 164 217.226562 L 90.425781 217.226562 Z M 90.425781 142 " clip-rule="nonzero"/></clipPath><clipPath id="c925ffe690"><path d="M 163.875 168.449219 C 163.875 192.074219 161.175781 198.148438 157.574219 202.726562 C 153.976562 207.300781 148.726562 211.425781 143.398438 213.824219 C 138.148438 216.148438 131.550781 217.425781 125.773438 217.050781 C 120 216.675781 113.625 214.726562 108.601562 211.726562 C 103.648438 208.726562 98.925781 204 95.925781 198.976562 C 92.925781 194.023438 90.976562 187.648438 90.601562 181.875 C 90.226562 176.101562 91.425781 169.5 93.824219 164.175781 C 96.226562 158.925781 100.351562 153.675781 104.925781 150.074219 C 109.5 146.476562 115.574219 143.773438 121.273438 142.726562 C 126.976562 141.675781 133.648438 142.050781 139.199219 143.773438 C 144.75 145.5 154.574219 153.074219 154.574219 153.074219 " clip-rule="nonzero"/></clipPath><clipPath id="24caf4475a"><path d="M 88.847656 143.347656 L 162.269531 143.347656 L 162.269531 218.652344 L 88.847656 218.652344 Z M 88.847656 143.347656 " clip-rule="nonzero"/></clipPath><clipPath id="52f411de96"><path d="M 162.226562 169.875 C 162.300781 193.5 159.523438 199.574219 155.925781 204.148438 C 152.324219 208.726562 147.074219 212.851562 141.824219 215.25 C 136.5 217.648438 129.976562 218.851562 124.125 218.476562 C 118.351562 218.101562 111.976562 216.148438 107.023438 213.148438 C 102.074219 210.148438 97.351562 205.425781 94.351562 200.476562 C 91.351562 195.449219 89.324219 189.148438 89.023438 183.300781 C 88.648438 177.523438 89.851562 170.925781 92.25 165.675781 C 94.648438 160.351562 98.699219 155.101562 103.273438 151.5 C 107.851562 147.976562 113.925781 145.199219 119.699219 144.148438 C 125.398438 143.101562 132.074219 143.550781 137.625 145.273438 C 143.101562 147 152.925781 154.574219 152.925781 154.574219 " clip-rule="nonzero"/></clipPath><clipPath id="9ca6aac46d"><path d="M 98.597656 153.097656 L 172 153.097656 L 172 228.402344 L 98.597656 228.402344 Z M 98.597656 153.097656 " clip-rule="nonzero"/></clipPath><clipPath id="2847bec6ee"><path d="M 171.976562 179.625 C 171.976562 203.25 169.273438 209.324219 165.675781 213.898438 C 162.074219 218.476562 156.824219 222.601562 151.574219 225 C 146.25 227.398438 139.726562 228.601562 133.875 228.226562 C 128.101562 227.851562 121.726562 225.898438 116.773438 222.898438 C 111.824219 219.898438 107.101562 215.175781 104.101562 210.226562 C 101.101562 205.199219 99.074219 198.824219 98.773438 193.050781 C 98.398438 187.273438 99.601562 180.675781 102 175.425781 C 104.324219 170.101562 108.449219 164.851562 113.023438 161.25 C 117.601562 157.726562 123.675781 154.949219 129.449219 153.898438 C 135.148438 152.851562 141.824219 153.300781 147.300781 155.023438 C 152.851562 156.75 162.675781 164.324219 162.675781 164.324219 " clip-rule="nonzero"/></clipPath><clipPath id="52bf208e26"><path d="M 86.148438 142.671875 L 159.882812 142.671875 L 159.882812 217.976562 L 86.148438 217.976562 Z M 86.148438 142.671875 " clip-rule="nonzero"/></clipPath><clipPath id="1f639b0ead"><path d="M 159.601562 169.199219 C 159.601562 192.824219 156.898438 198.898438 153.300781 203.476562 C 149.699219 208.050781 144.449219 212.175781 139.125 214.574219 C 133.875 216.976562 127.273438 218.175781 121.5 217.800781 C 115.726562 217.425781 109.351562 215.476562 104.398438 212.476562 C 99.375 209.476562 94.648438 204.75 91.648438 199.800781 C 88.648438 194.773438 86.699219 188.398438 86.324219 182.625 C 85.949219 176.851562 87.226562 170.25 89.550781 165 C 91.949219 159.675781 96.074219 154.425781 100.648438 150.824219 C 105.226562 147.300781 111.300781 144.523438 117 143.476562 C 122.699219 142.425781 129.375 142.875 134.925781 144.601562 C 140.476562 146.324219 150.300781 153.824219 150.300781 153.824219 " clip-rule="nonzero"/></clipPath><clipPath id="f4d274b62e"><path d="M 97.023438 141.621094 L 170.757812 141.621094 L 170.757812 216.925781 L 97.023438 216.925781 Z M 97.023438 141.621094 " clip-rule="nonzero"/></clipPath><clipPath id="c249fcc659"><path d="M 170.476562 168.148438 C 170.476562 191.773438 167.773438 197.851562 164.175781 202.425781 C 160.574219 207 155.324219 211.125 150 213.523438 C 144.75 215.925781 138.148438 217.125 132.375 216.75 C 126.601562 216.375 120.226562 214.425781 115.273438 211.425781 C 110.25 208.425781 105.523438 203.699219 102.523438 198.75 C 99.523438 193.726562 97.574219 187.351562 97.199219 181.574219 C 96.898438 175.800781 98.101562 169.199219 100.425781 163.949219 C 102.824219 158.625 106.949219 153.375 111.523438 149.773438 C 116.101562 146.25 122.175781 143.476562 127.875 142.425781 C 133.574219 141.375 140.25 141.824219 145.800781 143.550781 C 151.351562 145.273438 161.175781 152.773438 161.175781 152.773438 " clip-rule="nonzero"/></clipPath><clipPath id="797f2242b2"><path d="M 99.800781 114.472656 L 173.535156 114.472656 L 173.535156 189.777344 L 99.800781 189.777344 Z M 99.800781 114.472656 " clip-rule="nonzero"/></clipPath><clipPath id="df6a3cf3df"><path d="M 173.25 141 C 173.25 164.625 170.550781 170.699219 166.949219 175.273438 C 163.351562 179.851562 158.101562 183.976562 152.851562 186.375 C 147.523438 188.773438 141 189.976562 135.148438 189.601562 C 129.375 189.226562 123 187.273438 118.050781 184.273438 C 113.101562 181.273438 108.375 176.550781 105.375 171.601562 C 102.375 166.574219 100.351562 160.199219 99.976562 154.425781 C 99.675781 148.648438 100.875 142.050781 103.273438 136.800781 C 105.601562 131.476562 109.726562 126.226562 114.300781 122.625 C 118.875 119.101562 124.949219 116.324219 130.726562 115.273438 C 136.425781 114.226562 143.023438 114.675781 148.574219 116.398438 C 154.125 118.125 163.949219 125.625 163.949219 125.625 " clip-rule="nonzero"/></clipPath><clipPath id="d6ff288246"><path d="M 91.699219 162.695312 L 165.433594 162.695312 L 165.433594 238 L 91.699219 238 Z M 91.699219 162.695312 " clip-rule="nonzero"/></clipPath><clipPath id="c860e1daee"><path d="M 165.148438 189.226562 C 165.148438 212.925781 162.449219 219 158.851562 223.574219 C 155.25 228.148438 150 232.199219 144.675781 234.601562 C 139.425781 237 132.824219 238.199219 127.050781 237.824219 C 121.273438 237.523438 114.898438 235.5 109.949219 232.5 C 104.925781 229.5 100.199219 224.773438 97.199219 219.824219 C 94.199219 214.875 92.25 208.5 91.875 202.648438 C 91.574219 196.875 92.773438 190.351562 95.101562 185.023438 C 97.5 179.699219 101.625 174.449219 106.199219 170.925781 C 110.773438 167.324219 116.851562 164.550781 122.550781 163.5 C 128.25 162.449219 134.925781 162.898438 140.476562 164.625 C 146.023438 166.351562 155.851562 173.925781 155.851562 173.925781 " clip-rule="nonzero"/></clipPath><clipPath id="159f78030b"><path d="M 106.175781 192.171875 L 179.597656 192.171875 L 179.597656 267.476562 L 106.175781 267.476562 Z M 106.175781 192.171875 " clip-rule="nonzero"/></clipPath><clipPath id="43d2d0c353"><path d="M 179.550781 218.699219 C 179.625 242.324219 176.851562 248.398438 173.25 252.976562 C 169.726562 257.550781 164.476562 261.675781 159.148438 264.074219 C 153.824219 266.398438 147.300781 267.601562 141.523438 267.300781 C 135.675781 266.925781 129.300781 264.976562 124.351562 261.898438 C 119.398438 258.898438 114.675781 254.25 111.675781 249.226562 C 108.675781 244.273438 106.648438 237.898438 106.351562 232.125 C 105.976562 226.273438 107.175781 219.75 109.574219 214.425781 C 111.976562 209.175781 116.101562 203.925781 120.601562 200.324219 C 125.175781 196.726562 131.324219 194.023438 137.023438 192.976562 C 142.726562 191.925781 149.398438 192.300781 154.949219 194.023438 C 160.5 195.75 170.25 203.324219 170.25 203.324219 " clip-rule="nonzero"/></clipPath><clipPath id="3e9cb7760f"><path d="M 108.554688 227.792969 L 143.105469 227.792969 L 143.105469 263.144531 L 108.554688 263.144531 Z M 108.554688 227.792969 " clip-rule="nonzero"/></clipPath><clipPath id="09f1132a28"><path d="M 143.101562 240.148438 C 143.101562 251.25 141.824219 254.175781 140.101562 256.273438 C 138.449219 258.449219 135.976562 260.398438 133.5 261.523438 C 131.023438 262.648438 127.875 263.175781 125.175781 263.023438 C 122.476562 262.875 119.476562 261.898438 117.148438 260.476562 C 114.824219 259.125 112.574219 256.875 111.148438 254.550781 C 109.726562 252.226562 108.824219 249.226562 108.675781 246.449219 C 108.523438 243.75 109.050781 240.675781 110.175781 238.199219 C 111.300781 235.726562 113.25 233.25 115.351562 231.523438 C 117.523438 229.875 120.375 228.601562 123.074219 228.074219 C 125.773438 227.625 128.851562 227.773438 131.476562 228.601562 C 134.101562 229.425781 138.675781 232.949219 138.675781 232.949219 " clip-rule="nonzero"/></clipPath><clipPath id="a271ab99dd"><path d="M 118.605469 89 L 153.15625 89 L 153.15625 124.46875 L 118.605469 124.46875 Z M 118.605469 89 " clip-rule="nonzero"/></clipPath><clipPath id="3f4396f6e6"><path d="M 153.074219 101.476562 C 153.148438 112.574219 151.875 115.425781 150.148438 117.601562 C 148.5 119.773438 146.023438 121.648438 143.550781 122.773438 C 141 123.898438 137.925781 124.5 135.226562 124.351562 C 132.523438 124.125 129.523438 123.226562 127.199219 121.800781 C 124.800781 120.375 122.625 118.199219 121.199219 115.875 C 119.773438 113.476562 118.875 110.550781 118.726562 107.773438 C 118.5 105.074219 119.101562 102 120.226562 99.523438 C 121.351562 96.976562 123.300781 94.574219 125.398438 92.851562 C 127.574219 91.199219 130.425781 89.851562 133.125 89.398438 C 135.824219 88.875 138.898438 89.101562 141.523438 89.925781 C 144.148438 90.75 148.726562 94.273438 148.726562 94.273438 " clip-rule="nonzero"/></clipPath><clipPath id="433043877e"><path d="M 127.828125 85.585938 L 162.378906 85.585938 L 162.378906 121 L 127.828125 121 Z M 127.828125 85.585938 " clip-rule="nonzero"/></clipPath><clipPath id="60da6c5e4b"><path d="M 162.375 98.101562 C 162.375 109.199219 161.101562 112.050781 159.375 114.226562 C 157.726562 116.398438 155.25 118.351562 152.773438 119.398438 C 150.226562 120.523438 147.148438 121.125 144.449219 120.976562 C 141.75 120.824219 138.75 119.851562 136.425781 118.425781 C 134.023438 117 131.851562 114.824219 130.425781 112.5 C 129 110.175781 128.101562 107.175781 127.949219 104.398438 C 127.726562 101.699219 128.324219 98.625 129.449219 96.148438 C 130.574219 93.601562 132.523438 91.199219 134.625 89.476562 C 136.800781 87.824219 139.648438 86.550781 142.351562 86.023438 C 145.050781 85.5 148.125 85.726562 150.75 86.550781 C 153.375 87.375 157.949219 90.898438 157.949219 90.898438 " clip-rule="nonzero"/></clipPath><clipPath id="5353fc9d5f"><path d="M 147.179688 76.144531 L 181.730469 76.144531 L 181.730469 111.496094 L 147.179688 111.496094 Z M 147.179688 76.144531 " clip-rule="nonzero"/></clipPath><clipPath id="a79fab118b"><path d="M 181.648438 88.5 C 181.726562 99.675781 180.449219 102.523438 178.726562 104.625 C 177.074219 106.800781 174.601562 108.75 172.125 109.875 C 169.574219 111 166.5 111.523438 163.800781 111.375 C 161.101562 111.226562 158.101562 110.25 155.699219 108.824219 C 153.375 107.476562 151.199219 105.226562 149.773438 102.898438 C 148.351562 100.574219 147.449219 97.574219 147.300781 94.875 C 147.074219 92.101562 147.675781 89.023438 148.800781 86.550781 C 149.925781 84.074219 151.875 81.601562 153.976562 79.875 C 156.148438 78.226562 159 76.949219 161.699219 76.425781 C 164.398438 75.976562 167.476562 76.125 170.101562 76.949219 C 172.726562 77.773438 177.300781 81.300781 177.300781 81.300781 " clip-rule="nonzero"/></clipPath><clipPath id="cf2a670d5f"><path d="M 143.5625 83.660156 L 181.222656 83.660156 L 181.222656 156.429688 L 143.5625 156.429688 Z M 143.5625 83.660156 " clip-rule="nonzero"/></clipPath><clipPath id="acffd35804"><path d="M 180.601562 101.101562 C 180.976562 141 180.75 142.199219 180.074219 144.074219 C 179.398438 145.949219 178.351562 147.75 177.148438 149.324219 C 175.875 150.898438 174.300781 152.324219 172.648438 153.375 C 171 154.5 169.050781 155.324219 167.101562 155.773438 C 165.148438 156.300781 163.050781 156.449219 161.101562 156.300781 C 159.074219 156.148438 157.050781 155.625 155.175781 154.875 C 153.375 154.050781 151.574219 152.925781 150.074219 151.648438 C 148.574219 150.300781 147.300781 148.648438 146.25 146.925781 C 145.273438 145.199219 144.523438 143.175781 144.148438 141.226562 C 143.773438 139.273438 143.699219 137.175781 144 135.226562 C 144.226562 133.199219 144.898438 131.175781 145.726562 129.449219 C 146.625 127.648438 147.898438 125.925781 149.25 124.5 C 150.675781 123.074219 152.398438 121.875 154.199219 120.976562 C 155.925781 120.074219 157.949219 119.398438 159.976562 119.175781 C 161.925781 118.875 164.023438 118.949219 165.976562 119.324219 C 167.925781 119.699219 169.949219 120.375 171.675781 121.351562 C 173.398438 122.324219 175.050781 123.675781 176.398438 125.175781 C 177.75 126.601562 178.875 128.398438 179.699219 130.199219 C 180.449219 132.074219 180.976562 134.101562 181.125 136.125 C 181.351562 138.074219 181.125 140.175781 180.675781 142.125 C 180.226562 144.074219 179.398438 146.023438 178.273438 147.675781 C 177.226562 149.398438 175.800781 150.976562 174.300781 152.175781 C 172.726562 153.449219 170.851562 154.5 169.050781 155.175781 C 167.175781 155.851562 165.074219 156.300781 163.050781 156.375 C 161.101562 156.375 159 156.148438 157.125 155.550781 C 155.175781 154.949219 153.300781 154.050781 151.648438 152.851562 C 150.074219 151.726562 148.574219 150.226562 147.375 148.648438 C 146.175781 147 145.273438 145.125 144.675781 143.175781 C 144.074219 141.300781 144 140.101562 143.851562 137.25 C 143.476562 129.824219 143.324219 105.523438 145.351562 97.574219 C 146.324219 93.898438 147.375 92.023438 149.175781 89.925781 C 150.976562 87.824219 153.976562 85.949219 156.074219 84.898438 C 157.574219 84.226562 158.625 83.925781 160.273438 83.773438 C 162.601562 83.625 166.5 84 168.75 84.675781 C 170.324219 85.125 171.300781 85.574219 172.574219 86.550781 C 174.449219 87.976562 177.074219 90.449219 178.425781 92.851562 C 179.773438 95.25 180.601562 101.101562 180.601562 101.101562 " clip-rule="nonzero"/></clipPath><clipPath id="de7b0615f0"><path d="M 140 81.621094 L 174.53125 81.621094 L 174.53125 116.96875 L 140 116.96875 Z M 140 81.621094 " clip-rule="nonzero"/></clipPath><clipPath id="b793e7dedd"><path d="M 174.523438 94.050781 C 174.523438 105.148438 173.25 108 171.601562 110.101562 C 169.875 112.273438 167.476562 114.226562 164.925781 115.351562 C 162.449219 116.476562 159.375 117 156.675781 116.851562 C 153.898438 116.699219 150.898438 115.726562 148.574219 114.375 C 146.25 112.949219 144.074219 110.699219 142.648438 108.375 C 141.226562 106.050781 140.324219 103.050781 140.101562 100.351562 C 139.949219 97.574219 140.550781 94.5 141.675781 92.023438 C 142.800781 89.550781 144.675781 87.074219 146.851562 85.351562 C 149.023438 83.699219 151.875 82.425781 154.574219 81.898438 C 157.199219 81.449219 160.351562 81.601562 162.976562 82.425781 C 165.601562 83.25 170.175781 86.773438 170.175781 86.773438 " clip-rule="nonzero"/></clipPath><clipPath id="3a6022f8d1"><path d="M 122.375 95.113281 L 184 95.113281 L 184 282.320312 L 122.375 282.320312 Z M 122.375 95.113281 " clip-rule="nonzero"/></clipPath><clipPath id="62d4cab7ce"><path d="M 122.476562 145.726562 C 122.773438 121.949219 122.550781 116.699219 122.773438 113.476562 C 122.851562 111.601562 122.925781 110.550781 123.300781 109.125 C 123.675781 107.699219 124.199219 106.351562 124.875 105 C 125.550781 103.726562 126.375 102.523438 127.351562 101.398438 C 128.324219 100.351562 129.449219 99.375 130.574219 98.550781 C 131.773438 97.726562 133.125 97.050781 134.476562 96.523438 C 135.824219 96 137.324219 95.625 138.75 95.476562 C 140.175781 95.25 141.675781 95.25 143.101562 95.476562 C 144.523438 95.625 146.023438 96 147.375 96.523438 C 148.726562 97.050781 150 97.726562 151.199219 98.550781 C 152.398438 99.375 153.523438 100.351562 154.5 101.398438 C 155.476562 102.523438 156.300781 103.726562 156.976562 105 C 157.648438 106.351562 158.25 108.074219 158.550781 109.125 C 158.699219 109.800781 158.550781 110.699219 158.773438 110.851562 C 158.851562 110.925781 159.148438 110.773438 159.148438 110.773438 C 159.226562 110.699219 160.800781 110.773438 161.625 110.773438 C 162.375 110.851562 164.023438 110.851562 164.023438 110.851562 C 164.101562 110.851562 165.601562 111.300781 166.351562 111.523438 C 167.175781 111.75 168.675781 112.125 168.75 112.125 C 168.75 112.125 170.101562 112.949219 170.851562 113.324219 C 171.523438 113.699219 172.949219 114.523438 172.949219 114.523438 C 173.023438 114.523438 174.148438 115.648438 174.75 116.175781 C 175.351562 116.699219 176.476562 117.824219 176.550781 117.824219 C 176.550781 117.898438 177.375 119.175781 177.824219 119.851562 C 178.273438 120.523438 179.175781 121.875 179.175781 121.875 C 179.175781 121.949219 179.699219 123.449219 180 124.199219 C 180.226562 124.949219 180.75 126.449219 180.824219 126.523438 C 180.824219 126.523438 180.976562 128.101562 181.050781 128.925781 C 181.125 129.75 181.273438 131.324219 181.273438 131.324219 C 181.273438 131.398438 181.351562 146.25 181.351562 153.148438 C 181.351562 159.449219 181.351562 165.148438 181.273438 171.148438 C 181.273438 177.074219 181.199219 182.925781 181.273438 188.925781 C 181.351562 194.925781 181.800781 201.074219 181.800781 207.074219 C 181.875 213 181.351562 218.851562 181.425781 224.773438 C 181.574219 230.699219 182.925781 237.824219 182.550781 242.550781 C 182.324219 245.699219 180.75 247.800781 180.976562 250.425781 C 181.199219 253.125 184.199219 255.375 183.976562 258.523438 C 183.601562 263.101562 179.550781 271.199219 174.75 275.101562 C 169.273438 279.449219 156.449219 282.824219 151.574219 282.074219 C 149.023438 281.625 147.375 278.699219 146.175781 278.25 C 145.726562 278.023438 145.5 278.175781 145.125 278.023438 C 144.523438 277.875 143.773438 277.273438 143.101562 276.976562 C 142.425781 276.675781 141.449219 276.449219 140.925781 276.148438 C 140.550781 275.851562 140.398438 275.550781 140.101562 275.398438 C 139.726562 275.175781 139.425781 275.101562 139.050781 274.800781 C 138.523438 274.425781 138 273.675781 137.476562 273.148438 C 136.875 272.625 136.125 272.101562 135.675781 271.648438 C 135.449219 271.351562 135.375 270.976562 135.148438 270.675781 C 134.851562 270.375 134.550781 270.226562 134.324219 269.851562 C 133.949219 269.324219 133.726562 268.425781 133.351562 267.75 C 132.976562 267.074219 132.375 266.324219 132.148438 265.726562 C 132 265.351562 132.074219 264.976562 131.925781 264.601562 C 131.773438 264.300781 131.550781 264 131.476562 263.550781 C 131.25 262.949219 131.324219 262.050781 131.175781 261.300781 C 131.101562 260.550781 130.726562 259.648438 130.726562 259.050781 C 130.648438 258.601562 130.800781 258.300781 130.800781 257.925781 C 130.800781 257.476562 130.648438 257.175781 130.726562 256.726562 C 130.726562 256.125 131.101562 255.226562 131.175781 254.476562 C 131.324219 253.726562 131.25 252.824219 131.476562 252.226562 C 131.550781 251.773438 131.851562 251.550781 131.925781 251.175781 C 132.074219 250.800781 132 250.425781 132.148438 250.050781 C 132.449219 249.449219 133.050781 248.699219 133.351562 248.023438 C 133.726562 247.351562 134.023438 246.449219 134.324219 246 C 134.625 245.625 134.925781 245.398438 135.148438 245.101562 C 135.375 244.800781 135.449219 244.5 135.75 244.125 C 136.125 243.675781 136.949219 243.148438 137.476562 242.625 C 138.074219 242.101562 138.601562 241.351562 139.050781 240.976562 C 139.425781 240.675781 139.875 240.601562 140.101562 240.449219 C 140.25 240.300781 140.398438 240.375 140.476562 240.148438 C 141 238.875 139.726562 230.398438 139.726562 225.226562 C 139.726562 219.601562 140.625 212.324219 140.699219 207.523438 C 140.699219 204.226562 140.851562 201.148438 140.476562 199.273438 C 140.25 198.226562 139.949219 197.324219 139.425781 196.949219 C 139.125 196.726562 138.300781 196.875 138.226562 196.875 C 138.226562 196.800781 136.800781 196.351562 136.125 196.050781 C 135.375 195.824219 133.949219 195.300781 133.949219 195.300781 C 133.949219 195.300781 132.675781 194.476562 132.074219 194.023438 C 131.398438 193.648438 130.125 192.824219 130.125 192.75 C 130.125 192.75 129.074219 191.625 128.625 191.101562 C 128.101562 190.5 127.050781 189.449219 127.050781 189.375 C 127.050781 189.375 126.300781 188.101562 125.925781 187.425781 C 125.550781 186.75 124.875 185.398438 124.875 185.398438 C 124.800781 185.398438 124.425781 183.898438 124.273438 183.226562 C 124.050781 182.476562 123.675781 181.050781 123.675781 180.976562 C 123.675781 180.898438 123 174.75 122.773438 170.550781 C 122.476562 164.023438 122.476562 145.726562 122.476562 145.726562 " clip-rule="nonzero"/></clipPath><clipPath id="c530f8917a"><path d="M 112.472656 137.296875 L 155.378906 137.296875 L 155.378906 246.699219 L 112.472656 246.699219 Z M 112.472656 137.296875 " clip-rule="nonzero"/></clipPath><clipPath id="2bc206473f"><path d="M 117 227.851562 C 118.273438 195.75 118.574219 195.148438 119.476562 193.648438 C 120.75 191.625 123 188.773438 125.398438 187.125 C 127.726562 185.550781 130.800781 184.425781 133.574219 184.125 C 136.425781 183.75 140.023438 184.5 142.273438 185.25 C 143.925781 185.773438 144.898438 186.226562 146.175781 187.273438 C 148.050781 188.773438 150.675781 191.398438 151.949219 193.949219 C 153.300781 196.425781 154.5 202.273438 153.976562 202.5 C 153.226562 202.800781 148.800781 187.875 143.851562 186.449219 C 137.925781 184.800781 124.125 200.851562 119.398438 198.601562 C 115.199219 196.648438 115.875 185.023438 114.75 178.050781 C 113.625 171.148438 112.425781 162 112.5 157.050781 C 112.574219 154.425781 112.726562 152.851562 113.324219 150.898438 C 113.925781 148.949219 114.898438 147 116.101562 145.351562 C 117.226562 143.699219 118.800781 142.125 120.449219 140.925781 C 122.101562 139.726562 124.050781 138.75 126 138.148438 C 127.949219 137.550781 130.125 137.25 132.148438 137.324219 C 134.175781 137.398438 136.351562 137.773438 138.226562 138.449219 C 140.175781 139.199219 142.050781 140.25 143.625 141.523438 C 145.273438 142.800781 146.699219 144.375 147.824219 146.101562 C 148.949219 147.824219 149.773438 149.851562 150.300781 151.800781 C 150.75 153.75 150.976562 155.925781 150.824219 158.023438 C 150.675781 160.050781 150.148438 162.148438 149.324219 164.023438 C 148.5 165.898438 147.375 167.699219 146.023438 169.273438 C 144.675781 170.773438 142.949219 172.125 141.148438 173.175781 C 139.425781 174.148438 137.398438 174.898438 135.375 175.351562 C 133.351562 175.726562 131.175781 175.800781 129.148438 175.5 C 127.125 175.273438 125.023438 174.601562 123.226562 173.699219 C 121.351562 172.800781 119.625 171.523438 118.199219 170.101562 C 116.699219 168.675781 115.425781 166.875 114.523438 165.074219 C 113.625 163.273438 112.949219 161.175781 112.648438 159.148438 C 112.425781 157.125 112.425781 154.949219 112.800781 152.925781 C 113.25 150.898438 113.925781 148.875 114.976562 147.074219 C 115.949219 145.351562 117.300781 143.625 118.800781 142.273438 C 120.375 140.925781 122.175781 139.726562 124.050781 138.898438 C 125.925781 138.074219 128.023438 137.550781 130.050781 137.398438 C 132.074219 137.175781 134.25 137.398438 136.273438 137.851562 C 138.226562 138.375 140.25 139.199219 141.976562 140.324219 C 143.699219 141.375 145.273438 142.875 146.625 144.449219 C 147.898438 146.023438 148.800781 147.148438 149.699219 149.851562 C 151.726562 156.148438 152.699219 173.398438 153.300781 183.75 C 153.75 192.449219 157.199219 201.75 153.523438 207.75 C 149.550781 214.125 134.699219 221.550781 128.550781 219.824219 C 123.226562 218.25 118.125 207.148438 117.300781 202.199219 C 116.773438 198.976562 118.5 195.824219 119.476562 193.648438 C 120.226562 192.148438 120.824219 191.25 122.023438 190.050781 C 123.75 188.398438 126.601562 186.148438 129.300781 185.101562 C 131.925781 184.125 135.601562 183.976562 138 184.125 C 139.726562 184.273438 140.773438 184.5 142.273438 185.25 C 144.449219 186.226562 147.601562 188.101562 149.476562 190.273438 C 151.351562 192.375 152.773438 195.75 153.523438 198.074219 C 153.976562 199.726562 153.976562 200.324219 153.976562 202.425781 C 154.125 208.125 154.050781 226.875 152.101562 233.550781 C 151.050781 237.074219 149.324219 239.25 147.824219 240.976562 C 146.699219 242.25 145.875 242.925781 144.449219 243.75 C 142.425781 244.875 138.601562 246.074219 136.351562 246.449219 C 134.699219 246.675781 133.648438 246.601562 132 246.226562 C 129.75 245.773438 126.375 244.574219 124.125 242.925781 C 121.949219 241.273438 119.925781 238.800781 118.726562 236.25 C 117.523438 233.773438 117 227.851562 117 227.851562 " clip-rule="nonzero"/></clipPath></defs><path fill="#ffffff" d="M 212.300781 231.265625 C 210.570312 231.90625 209.695312 233.847656 210.335938 235.625 C 210.953125 237.378906 212.941406 238.304688 214.695312 237.664062 C 223.863281 234.226562 234.125 238.917969 237.558594 248.042969 C 238.199219 249.769531 240.140625 250.695312 241.894531 250.054688 C 243.671875 249.414062 244.527344 247.425781 243.863281 245.648438 C 239.171875 233.019531 224.976562 226.550781 212.300781 231.265625 Z M 212.300781 231.265625 " fill-opacity="1" fill-rule="nonzero"/><g clip-path="url(#22749d9a4f)"><path fill="#ffffff" d="M 294.566406 176.53125 C 294.566406 166.488281 289.140625 157.269531 280.5625 152.246094 C 281.15625 149.875 281.605469 147.460938 281.605469 144.996094 C 281.605469 132.035156 272.792969 121.207031 260.875 117.914062 C 262.058594 114.976562 262.722656 111.847656 262.722656 108.625 C 262.722656 95.097656 251.730469 84.078125 238.199219 84.078125 C 237.75 84.078125 237.324219 84.148438 236.824219 84.171875 C 229.457031 77.207031 218.082031 73.15625 217.585938 72.988281 C 210.738281 70.40625 204.863281 70.597656 200.21875 73.628906 C 192.328125 78.792969 191.59375 90.191406 191.59375 90.664062 L 191.570312 143.691406 L 191.570312 143.714844 C 191.570312 143.714844 191.570312 143.738281 191.570312 143.738281 L 191.570312 234.464844 C 191.570312 234.511719 191.570312 234.511719 191.570312 234.511719 L 191.570312 258.488281 C 191.570312 271.996094 204.507812 283.011719 220.382812 283.011719 C 233.152344 283.011719 244.121094 275.882812 247.796875 265.742188 C 248.457031 265.789062 249.121094 265.929688 249.738281 265.929688 C 263.269531 265.929688 274.285156 254.960938 274.285156 241.40625 C 274.285156 238.492188 273.742188 235.578125 272.722656 232.902344 C 282.957031 228.492188 289.804688 218.351562 289.804688 207.027344 C 289.804688 202.953125 288.90625 198.972656 287.222656 195.320312 C 291.773438 190.324219 294.566406 183.78125 294.566406 176.53125 Z M 267.222656 227.710938 C 267.105469 227.757812 267.035156 227.804688 266.917969 227.855469 C 266.773438 227.925781 266.585938 227.925781 266.464844 228.019531 C 266.371094 228.066406 266.347656 228.113281 266.253906 228.160156 C 266.0625 228.351562 265.898438 228.492188 265.730469 228.683594 C 265.589844 228.824219 265.449219 228.945312 265.375 229.085938 C 265.210938 229.324219 265.140625 229.511719 265.019531 229.796875 C 264.972656 229.914062 264.902344 230.058594 264.855469 230.246094 C 264.808594 230.484375 264.808594 230.746094 264.808594 231.027344 C 264.808594 231.21875 264.808594 231.359375 264.855469 231.503906 C 264.855469 231.644531 264.808594 231.785156 264.855469 231.882812 C 264.902344 231.976562 264.996094 232.023438 265.019531 232.117188 C 265.117188 232.285156 265.117188 232.472656 265.210938 232.617188 C 266.703125 235.292969 267.554688 238.304688 267.554688 241.40625 C 267.554688 251.214844 259.523438 259.175781 249.738281 259.175781 C 248.53125 259.175781 247.34375 259.082031 246.183594 258.796875 L 246.136719 258.796875 C 244.335938 258.464844 242.511719 259.628906 242.109375 261.429688 C 240.332031 270.003906 231.164062 276.261719 220.382812 276.261719 C 208.179688 276.261719 198.324219 268.253906 198.324219 258.488281 L 198.324219 234.464844 C 198.324219 224.703125 206.308594 216.695312 216.09375 216.695312 C 217.964844 216.695312 219.503906 215.203125 219.503906 213.304688 C 219.503906 211.457031 217.988281 209.917969 216.09375 209.917969 C 209.078125 209.917969 202.777344 212.925781 198.324219 217.640625 L 198.324219 143.714844 C 198.324219 133.90625 206.308594 125.945312 216.09375 125.945312 C 217.964844 125.945312 219.503906 124.429688 219.503906 122.558594 C 219.503906 120.6875 217.988281 119.144531 216.09375 119.144531 C 209.078125 119.144531 202.777344 122.132812 198.324219 126.847656 L 198.324219 90.855469 C 198.324219 90.855469 198.914062 82.539062 203.960938 79.292969 C 206.640625 77.515625 210.5 77.539062 215.3125 79.339844 C 215.453125 79.410156 222.492188 81.921875 228.507812 86.09375 C 223.605469 88.226562 219.410156 91.875 216.734375 96.707031 C 214.742188 100.332031 213.675781 104.457031 213.675781 108.601562 C 213.675781 110.449219 215.167969 111.988281 217.0625 111.988281 C 218.9375 111.988281 220.453125 110.449219 220.453125 108.601562 C 220.453125 105.59375 221.210938 102.605469 222.679688 99.976562 C 225.785156 94.363281 231.730469 90.855469 238.199219 90.855469 C 247.984375 90.855469 255.96875 98.816406 255.96875 108.625 C 255.96875 111.539062 255.117188 114.3125 253.789062 116.847656 C 253.648438 116.847656 253.53125 116.824219 253.410156 116.824219 C 242.652344 116.824219 233.011719 122.769531 228.199219 132.414062 C 227.371094 134.074219 228.035156 136.085938 229.71875 136.917969 C 231.375 137.746094 233.390625 137.082031 234.242188 135.421875 C 237.890625 128.101562 245.238281 123.578125 253.410156 123.578125 C 265.210938 123.578125 274.855469 133.171875 274.855469 144.996094 C 274.855469 146.558594 274.59375 148.101562 274.285156 149.617188 C 271.75 148.859375 269.144531 148.359375 266.347656 148.359375 C 264.5 148.359375 262.9375 149.851562 262.9375 151.726562 C 262.9375 153.597656 264.5 155.113281 266.347656 155.113281 C 269.453125 155.113281 272.414062 155.753906 275.1875 157.007812 C 275.257812 157.03125 275.304688 157.078125 275.351562 157.105469 L 275.398438 157.105469 C 282.933594 160.609375 287.765625 168.214844 287.765625 176.53125 C 287.765625 188.355469 278.171875 197.953125 266.347656 197.953125 C 264.5 197.953125 262.9375 199.46875 262.9375 201.386719 C 262.9375 203.234375 264.476562 204.777344 266.347656 204.777344 C 272.035156 204.777344 277.292969 203.023438 281.703125 200.15625 C 282.507812 202.289062 283.003906 204.65625 283.003906 207.027344 C 283.003906 216.648438 276.535156 225.152344 267.222656 227.710938 Z M 267.222656 227.710938 " fill-opacity="1" fill-rule="nonzero"/></g><path fill="#ffffff" d="M 248.363281 198.640625 C 238.578125 198.046875 231.113281 189.589844 231.660156 179.800781 C 231.707031 179.351562 231.636719 178.925781 231.492188 178.5 C 236.636719 173.996094 240.214844 168.050781 241.515625 161.226562 C 241.894531 159.402344 240.710938 157.625 238.863281 157.269531 C 236.992188 156.914062 235.214844 158.121094 234.882812 159.921875 C 233.648438 166.25 230.046875 171.722656 224.742188 175.347656 C 219.410156 178.972656 213.011719 180.300781 206.710938 179.066406 C 204.933594 178.710938 203.0625 179.945312 202.730469 181.746094 C 202.398438 183.59375 203.605469 185.371094 205.453125 185.726562 C 207.398438 186.082031 209.339844 186.269531 211.28125 186.269531 C 216.070312 186.269531 220.785156 185.132812 225.074219 182.953125 C 226.09375 194.894531 235.617188 204.679688 247.9375 205.414062 C 248.03125 205.414062 248.078125 205.414062 248.128906 205.414062 C 249.929688 205.414062 251.421875 204.019531 251.539062 202.21875 C 251.609375 200.34375 250.234375 198.734375 248.363281 198.640625 Z M 248.363281 198.640625 " fill-opacity="1" fill-rule="nonzero"/><path fill="#ffffff" d="M 163.449219 231.265625 C 165.175781 231.90625 166.054688 233.847656 165.414062 235.625 C 164.796875 237.378906 162.808594 238.304688 161.054688 237.664062 C 151.886719 234.226562 141.625 238.917969 138.191406 248.042969 C 137.550781 249.769531 135.605469 250.695312 133.855469 250.054688 C 132.078125 249.414062 131.222656 247.425781 131.886719 245.648438 C 136.578125 233.019531 150.773438 226.550781 163.449219 231.265625 Z M 163.449219 231.265625 " fill-opacity="1" fill-rule="nonzero"/><g clip-path="url(#0ea1d2c02f)"><path fill="#ffffff" d="M 81.183594 176.53125 C 81.183594 166.488281 86.609375 157.269531 95.183594 152.246094 C 94.59375 149.875 94.144531 147.460938 94.144531 144.996094 C 94.144531 132.035156 102.957031 121.207031 114.875 117.914062 C 113.691406 114.976562 113.027344 111.847656 113.027344 108.625 C 113.027344 95.097656 124.019531 84.078125 137.550781 84.078125 C 138 84.078125 138.425781 84.148438 138.925781 84.171875 C 146.292969 77.207031 157.667969 73.15625 158.164062 72.988281 C 165.011719 70.40625 170.886719 70.597656 175.53125 73.628906 C 183.421875 78.792969 184.15625 90.191406 184.15625 90.664062 L 184.179688 143.691406 L 184.179688 143.714844 C 184.179688 143.714844 184.179688 143.738281 184.179688 143.738281 L 184.179688 234.464844 C 184.179688 234.511719 184.179688 234.511719 184.179688 234.511719 L 184.179688 258.488281 C 184.179688 271.996094 171.242188 283.011719 155.367188 283.011719 C 142.597656 283.011719 131.625 275.882812 127.953125 265.742188 C 127.289062 265.789062 126.628906 265.929688 126.011719 265.929688 C 112.480469 265.929688 101.464844 254.960938 101.464844 241.40625 C 101.464844 238.492188 102.007812 235.578125 103.027344 232.902344 C 92.792969 228.492188 85.945312 218.351562 85.945312 207.027344 C 85.945312 202.953125 86.84375 198.972656 88.527344 195.320312 C 83.976562 190.324219 81.183594 183.78125 81.183594 176.53125 Z M 108.523438 227.710938 C 108.644531 227.757812 108.714844 227.804688 108.832031 227.855469 C 108.976562 227.925781 109.164062 227.925781 109.285156 228.019531 C 109.378906 228.066406 109.402344 228.113281 109.496094 228.160156 C 109.6875 228.351562 109.851562 228.492188 110.019531 228.683594 C 110.160156 228.824219 110.300781 228.945312 110.375 229.085938 C 110.539062 229.324219 110.609375 229.511719 110.730469 229.796875 C 110.777344 229.914062 110.847656 230.058594 110.894531 230.246094 C 110.941406 230.484375 110.941406 230.746094 110.941406 231.027344 C 110.941406 231.21875 110.941406 231.359375 110.894531 231.503906 C 110.894531 231.644531 110.941406 231.785156 110.894531 231.882812 C 110.847656 231.976562 110.753906 232.023438 110.730469 232.117188 C 110.632812 232.285156 110.632812 232.472656 110.539062 232.617188 C 109.046875 235.292969 108.195312 238.304688 108.195312 241.40625 C 108.195312 251.214844 116.226562 259.175781 126.011719 259.175781 C 127.21875 259.175781 128.40625 259.082031 129.566406 258.796875 L 129.613281 258.796875 C 131.414062 258.464844 133.238281 259.628906 133.640625 261.429688 C 135.417969 270.003906 144.585938 276.261719 155.367188 276.261719 C 167.570312 276.261719 177.425781 268.253906 177.425781 258.488281 L 177.425781 234.464844 C 177.425781 224.703125 169.441406 216.695312 159.65625 216.695312 C 157.785156 216.695312 156.246094 215.203125 156.246094 213.304688 C 156.246094 211.457031 157.761719 209.917969 159.65625 209.917969 C 166.671875 209.917969 172.972656 212.925781 177.425781 217.640625 L 177.425781 143.714844 C 177.425781 133.90625 169.441406 125.945312 159.65625 125.945312 C 157.785156 125.945312 156.246094 124.429688 156.246094 122.558594 C 156.246094 120.6875 157.761719 119.144531 159.65625 119.144531 C 166.671875 119.144531 172.972656 122.132812 177.425781 126.847656 L 177.425781 90.855469 C 177.425781 90.855469 176.835938 82.539062 171.789062 79.292969 C 169.109375 77.515625 165.25 77.539062 160.4375 79.339844 C 160.296875 79.410156 153.257812 81.921875 147.242188 86.09375 C 152.144531 88.226562 156.339844 91.875 159.015625 96.707031 C 161.007812 100.332031 162.074219 104.457031 162.074219 108.601562 C 162.074219 110.449219 160.582031 111.988281 158.683594 111.988281 C 156.8125 111.988281 155.296875 110.449219 155.296875 108.601562 C 155.296875 105.59375 154.539062 102.605469 153.070312 99.976562 C 149.964844 94.363281 144.019531 90.855469 137.550781 90.855469 C 127.765625 90.855469 119.78125 98.816406 119.78125 108.625 C 119.78125 111.539062 120.632812 114.3125 121.960938 116.847656 C 122.101562 116.847656 122.21875 116.824219 122.339844 116.824219 C 133.097656 116.824219 142.738281 122.769531 147.550781 132.414062 C 148.378906 134.074219 147.714844 136.085938 146.03125 136.917969 C 144.375 137.746094 142.359375 137.082031 141.507812 135.421875 C 137.859375 128.101562 130.511719 123.578125 122.339844 123.578125 C 110.539062 123.578125 100.894531 133.171875 100.894531 144.996094 C 100.894531 146.558594 101.15625 148.101562 101.464844 149.617188 C 104 148.859375 106.605469 148.359375 109.402344 148.359375 C 111.25 148.359375 112.8125 149.851562 112.8125 151.726562 C 112.8125 153.597656 111.25 155.113281 109.402344 155.113281 C 106.296875 155.113281 103.335938 155.753906 100.5625 157.007812 C 100.492188 157.03125 100.445312 157.078125 100.398438 157.105469 L 100.351562 157.105469 C 92.816406 160.609375 87.984375 168.214844 87.984375 176.53125 C 87.984375 188.355469 97.578125 197.953125 109.402344 197.953125 C 111.25 197.953125 112.8125 199.46875 112.8125 201.386719 C 112.8125 203.234375 111.273438 204.777344 109.402344 204.777344 C 103.714844 204.777344 98.457031 203.023438 94.046875 200.15625 C 93.242188 202.289062 92.746094 204.65625 92.746094 207.027344 C 92.746094 216.648438 99.214844 225.152344 108.523438 227.710938 Z M 108.523438 227.710938 " fill-opacity="1" fill-rule="nonzero"/></g><path fill="#ffffff" d="M 127.386719 198.640625 C 137.171875 198.046875 144.636719 189.589844 144.089844 179.800781 C 144.042969 179.351562 144.113281 178.925781 144.253906 178.5 C 139.113281 173.996094 135.535156 168.050781 134.234375 161.226562 C 133.855469 159.402344 135.039062 157.625 136.886719 157.269531 C 138.757812 156.914062 140.535156 158.121094 140.867188 159.921875 C 142.097656 166.25 145.699219 171.722656 151.007812 175.347656 C 156.339844 178.972656 162.738281 180.300781 169.039062 179.066406 C 170.816406 178.710938 172.6875 179.945312 173.019531 181.746094 C 173.351562 183.59375 172.144531 185.371094 170.296875 185.726562 C 168.351562 186.082031 166.410156 186.269531 164.464844 186.269531 C 159.679688 186.269531 154.964844 185.132812 150.675781 182.953125 C 149.65625 194.894531 140.132812 204.679688 127.8125 205.414062 C 127.71875 205.414062 127.667969 205.414062 127.621094 205.414062 C 125.820312 205.414062 124.328125 204.019531 124.210938 202.21875 C 124.140625 200.34375 125.515625 198.734375 127.386719 198.640625 Z M 127.386719 198.640625 " fill-opacity="1" fill-rule="nonzero"/><g clip-path="url(#ba30eba431)"><g clip-path="url(#9e6b849de9)"><path fill="#ffffff" d="M 118.273438 162.375 L 139.125 162.375 L 139.125 192.265625 L 118.273438 192.265625 Z M 118.273438 162.375 " fill-opacity="1" fill-rule="nonzero"/></g></g><g clip-path="url(#943a620701)"><g clip-path="url(#c925ffe690)"><path fill="#ffffff" d="M 87.601562 139.726562 L 167.925781 139.726562 L 167.925781 220.050781 L 87.601562 220.050781 Z M 87.601562 139.726562 " fill-opacity="1" fill-rule="nonzero"/></g></g><g clip-path="url(#24caf4475a)"><g clip-path="url(#52f411de96)"><path fill="#ffffff" d="M 86.023438 141.148438 L 166.351562 141.148438 L 166.351562 221.476562 L 86.023438 221.476562 Z M 86.023438 141.148438 " fill-opacity="1" fill-rule="nonzero"/></g></g><g clip-path="url(#9ca6aac46d)"><g clip-path="url(#2847bec6ee)"><path fill="#ffffff" d="M 95.773438 150.898438 L 176.101562 150.898438 L 176.101562 231.226562 L 95.773438 231.226562 Z M 95.773438 150.898438 " fill-opacity="1" fill-rule="nonzero"/></g></g><g clip-path="url(#52bf208e26)"><g clip-path="url(#1f639b0ead)"><path fill="#ffffff" d="M 83.324219 140.476562 L 163.648438 140.476562 L 163.648438 220.800781 L 83.324219 220.800781 Z M 83.324219 140.476562 " fill-opacity="1" fill-rule="nonzero"/></g></g><g clip-path="url(#f4d274b62e)"><g clip-path="url(#c249fcc659)"><path fill="#ffffff" d="M 94.199219 139.425781 L 174.523438 139.425781 L 174.523438 219.75 L 94.199219 219.75 Z M 94.199219 139.425781 " fill-opacity="1" fill-rule="nonzero"/></g></g><g clip-path="url(#797f2242b2)"><g clip-path="url(#df6a3cf3df)"><path fill="#ffffff" d="M 96.976562 112.273438 L 177.300781 112.273438 L 177.300781 192.601562 L 96.976562 192.601562 Z M 96.976562 112.273438 " fill-opacity="1" fill-rule="nonzero"/></g></g><g clip-path="url(#d6ff288246)"><g clip-path="url(#c860e1daee)"><path fill="#ffffff" d="M 88.875 160.5 L 169.199219 160.5 L 169.199219 240.824219 L 88.875 240.824219 Z M 88.875 160.5 " fill-opacity="1" fill-rule="nonzero"/></g></g><g clip-path="url(#159f78030b)"><g clip-path="url(#43d2d0c353)"><path fill="#ffffff" d="M 103.351562 189.976562 L 183.675781 189.976562 L 183.675781 270.300781 L 103.351562 270.300781 Z M 103.351562 189.976562 " fill-opacity="1" fill-rule="nonzero"/></g></g><g clip-path="url(#3e9cb7760f)"><g clip-path="url(#09f1132a28)"><path fill="#ffffff" d="M 105.675781 225.074219 L 146.625 225.074219 L 146.625 266.023438 L 105.675781 266.023438 Z M 105.675781 225.074219 " fill-opacity="1" fill-rule="nonzero"/></g></g><g clip-path="url(#a271ab99dd)"><g clip-path="url(#3f4396f6e6)"><path fill="#ffffff" d="M 115.726562 86.398438 L 156.675781 86.398438 L 156.675781 127.351562 L 115.726562 127.351562 Z M 115.726562 86.398438 " fill-opacity="1" fill-rule="nonzero"/></g></g><g clip-path="url(#433043877e)"><g clip-path="url(#60da6c5e4b)"><path fill="#ffffff" d="M 124.949219 83.023438 L 165.898438 83.023438 L 165.898438 123.976562 L 124.949219 123.976562 Z M 124.949219 83.023438 " fill-opacity="1" fill-rule="nonzero"/></g></g><g clip-path="url(#5353fc9d5f)"><g clip-path="url(#a79fab118b)"><path fill="#ffffff" d="M 144.300781 73.425781 L 185.25 73.425781 L 185.25 114.375 L 144.300781 114.375 Z M 144.300781 73.425781 " fill-opacity="1" fill-rule="nonzero"/></g></g><g clip-path="url(#cf2a670d5f)"><g clip-path="url(#acffd35804)"><path fill="#ffffff" d="M 140.851562 80.773438 L 184.273438 80.773438 L 184.273438 159.3125 L 140.851562 159.3125 Z M 140.851562 80.773438 " fill-opacity="1" fill-rule="nonzero"/></g></g><g clip-path="url(#de7b0615f0)"><g clip-path="url(#b793e7dedd)"><path fill="#ffffff" d="M 137.101562 78.898438 L 178.050781 78.898438 L 178.050781 119.851562 L 137.101562 119.851562 Z M 137.101562 78.898438 " fill-opacity="1" fill-rule="nonzero"/></g></g><g clip-path="url(#3a6022f8d1)"><g clip-path="url(#62d4cab7ce)"><path fill="#ffffff" d="M 119.476562 92.476562 L 186.976562 92.476562 L 186.976562 284.957031 L 119.476562 284.957031 Z M 119.476562 92.476562 " fill-opacity="1" fill-rule="nonzero"/></g></g><g clip-path="url(#c530f8917a)"><g clip-path="url(#2bc206473f)"><path fill="#ffffff" d="M 109.5 134.324219 L 157.050781 134.324219 L 157.050781 249.484375 L 109.5 249.484375 Z M 109.5 134.324219 " fill-opacity="1" fill-rule="nonzero"/></g></g></svg>