<svg xmlns="http://www.w3.org/2000/svg" xmlns:xlink="http://www.w3.org/1999/xlink" width="500" zoomAndPan="magnify" viewBox="0 0 375 374.999991" height="500" preserveAspectRatio="xMidYMid meet" version="1.0"><defs><clipPath id="e28b71c7b9"><path d="M 191 71 L 293.75 71 L 293.75 283 L 191 283 Z M 191 71 " clip-rule="nonzero"/></clipPath><clipPath id="cfec6aeead"><path d="M 76.34375 72.667969 L 184.917969 72.667969 L 184.917969 281.167969 L 76.34375 281.167969 Z M 76.34375 72.667969 " clip-rule="nonzero"/></clipPath><clipPath id="68b644ad03"><path d="M 98.210938 194 L 185.210938 194 L 185.210938 207.65625 L 98.210938 207.65625 Z M 98.210938 194 " clip-rule="nonzero"/></clipPath><clipPath id="38054f3e68"><path d="M 139 182 L 185.210938 182 L 185.210938 188 L 139 188 Z M 139 182 " clip-rule="nonzero"/></clipPath><clipPath id="10b7d1dcf9"><path d="M 146 191 L 185.210938 191 L 185.210938 200 L 146 200 Z M 146 191 " clip-rule="nonzero"/></clipPath><clipPath id="d8421360a7"><path d="M 116 167.15625 L 185 167.15625 L 185 178 L 116 178 Z M 116 167.15625 " clip-rule="nonzero"/></clipPath></defs><path fill="#000000" d="M 212.027344 231.082031 C 210.300781 231.71875 209.421875 233.660156 210.0625 235.433594 C 210.679688 237.1875 212.667969 238.109375 214.417969 237.46875 C 223.578125 234.039062 233.824219 238.722656 237.253906 247.835938 C 237.894531 249.5625 239.835938 250.488281 241.585938 249.847656 C 243.363281 249.207031 244.214844 247.222656 243.550781 245.445312 C 238.863281 232.832031 224.6875 226.371094 212.027344 231.082031 Z M 212.027344 231.082031 " fill-opacity="1" fill-rule="nonzero"/><g clip-path="url(#e28b71c7b9)"><path fill="#000000" d="M 294.199219 176.410156 C 294.199219 166.375 288.777344 157.167969 280.210938 152.152344 C 280.800781 149.785156 281.253906 147.371094 281.253906 144.910156 C 281.253906 131.964844 272.449219 121.148438 260.542969 117.859375 C 261.726562 114.925781 262.390625 111.800781 262.390625 108.582031 C 262.390625 95.066406 251.410156 84.0625 237.894531 84.0625 C 237.445312 84.0625 237.019531 84.132812 236.523438 84.15625 C 229.160156 77.199219 217.800781 73.152344 217.304688 72.988281 C 210.464844 70.40625 204.597656 70.597656 199.957031 73.625 C 192.074219 78.785156 191.34375 90.167969 191.34375 90.640625 L 191.320312 143.609375 L 191.320312 143.632812 C 191.320312 143.632812 191.320312 143.65625 191.320312 143.65625 L 191.320312 234.273438 C 191.320312 234.324219 191.320312 234.324219 191.320312 234.324219 L 191.320312 258.273438 C 191.320312 271.761719 204.242188 282.769531 220.097656 282.769531 C 232.855469 282.769531 243.8125 275.644531 247.480469 265.515625 C 248.140625 265.5625 248.804688 265.703125 249.421875 265.703125 C 262.933594 265.703125 273.9375 254.746094 273.9375 241.210938 C 273.9375 238.296875 273.394531 235.386719 272.378906 232.714844 C 282.601562 228.3125 289.441406 218.183594 289.441406 206.871094 C 289.441406 202.796875 288.542969 198.824219 286.859375 195.179688 C 291.40625 190.183594 294.199219 183.652344 294.199219 176.410156 Z M 266.886719 227.53125 C 266.769531 227.578125 266.695312 227.625 266.578125 227.671875 C 266.4375 227.742188 266.246094 227.742188 266.128906 227.839844 C 266.035156 227.886719 266.011719 227.933594 265.917969 227.980469 C 265.726562 228.167969 265.5625 228.3125 265.394531 228.5 C 265.253906 228.640625 265.113281 228.761719 265.039062 228.902344 C 264.875 229.140625 264.804688 229.328125 264.683594 229.613281 C 264.636719 229.730469 264.566406 229.875 264.519531 230.0625 C 264.472656 230.300781 264.472656 230.558594 264.472656 230.84375 C 264.472656 231.03125 264.472656 231.175781 264.519531 231.316406 C 264.519531 231.457031 264.472656 231.601562 264.519531 231.695312 C 264.566406 231.789062 264.660156 231.835938 264.683594 231.933594 C 264.78125 232.097656 264.78125 232.289062 264.875 232.429688 C 266.367188 235.105469 267.21875 238.109375 267.21875 241.210938 C 267.21875 251.007812 259.195312 258.960938 249.421875 258.960938 C 248.214844 258.960938 247.03125 258.863281 245.871094 258.582031 L 245.824219 258.582031 C 244.023438 258.25 242.203125 259.410156 241.800781 261.207031 C 240.023438 269.773438 230.867188 276.023438 220.097656 276.023438 C 207.910156 276.023438 198.0625 268.023438 198.0625 258.273438 L 198.0625 234.273438 C 198.0625 224.523438 206.039062 216.523438 215.8125 216.523438 C 217.683594 216.523438 219.222656 215.035156 219.222656 213.140625 C 219.222656 211.292969 217.707031 209.757812 215.8125 209.757812 C 208.808594 209.757812 202.511719 212.761719 198.0625 217.472656 L 198.0625 143.632812 C 198.0625 133.832031 206.039062 125.882812 215.8125 125.882812 C 217.683594 125.882812 219.222656 124.367188 219.222656 122.496094 C 219.222656 120.628906 217.707031 119.089844 215.8125 119.089844 C 208.808594 119.089844 202.511719 122.070312 198.0625 126.78125 L 198.0625 90.832031 C 198.0625 90.832031 198.65625 82.523438 203.695312 79.28125 C 206.371094 77.507812 210.226562 77.53125 215.03125 79.328125 C 215.175781 79.402344 222.203125 81.910156 228.214844 86.074219 C 223.316406 88.203125 219.128906 91.847656 216.453125 96.675781 C 214.464844 100.296875 213.398438 104.417969 213.398438 108.558594 C 213.398438 110.402344 214.890625 111.941406 216.785156 111.941406 C 218.652344 111.941406 220.167969 110.402344 220.167969 108.558594 C 220.167969 105.550781 220.925781 102.570312 222.394531 99.941406 C 225.492188 94.335938 231.433594 90.832031 237.894531 90.832031 C 247.667969 90.832031 255.644531 98.785156 255.644531 108.582031 C 255.644531 111.492188 254.792969 114.261719 253.46875 116.792969 C 253.324219 116.792969 253.207031 116.769531 253.089844 116.769531 C 242.34375 116.769531 232.710938 122.710938 227.90625 132.34375 C 227.078125 134 227.742188 136.011719 229.421875 136.839844 C 231.078125 137.667969 233.089844 137.003906 233.941406 135.347656 C 237.585938 128.035156 244.921875 123.515625 253.089844 123.515625 C 264.875 123.515625 274.507812 133.101562 274.507812 144.910156 C 274.507812 146.472656 274.246094 148.011719 273.9375 149.523438 C 271.40625 148.765625 268.804688 148.269531 266.011719 148.269531 C 264.164062 148.269531 262.601562 149.761719 262.601562 151.632812 C 262.601562 153.5 264.164062 155.015625 266.011719 155.015625 C 269.109375 155.015625 272.070312 155.65625 274.839844 156.910156 C 274.910156 156.933594 274.957031 156.980469 275.003906 157.003906 L 275.050781 157.003906 C 282.578125 160.507812 287.40625 168.101562 287.40625 176.410156 C 287.40625 188.21875 277.820312 197.804688 266.011719 197.804688 C 264.164062 197.804688 262.601562 199.320312 262.601562 201.238281 C 262.601562 203.082031 264.140625 204.621094 266.011719 204.621094 C 271.691406 204.621094 276.945312 202.871094 281.347656 200.007812 C 282.152344 202.136719 282.648438 204.503906 282.648438 206.871094 C 282.648438 216.476562 276.1875 224.972656 266.886719 227.53125 Z M 266.886719 227.53125 " fill-opacity="1" fill-rule="nonzero"/></g><path fill="#000000" d="M 248.046875 198.492188 C 238.273438 197.898438 230.820312 189.449219 231.363281 179.675781 C 231.410156 179.226562 231.339844 178.800781 231.195312 178.375 C 236.332031 173.878906 239.90625 167.9375 241.207031 161.121094 C 241.585938 159.300781 240.402344 157.523438 238.558594 157.167969 C 236.6875 156.8125 234.914062 158.019531 234.582031 159.820312 C 233.351562 166.140625 229.753906 171.605469 224.453125 175.226562 C 219.128906 178.847656 212.738281 180.171875 206.441406 178.941406 C 204.667969 178.585938 202.796875 179.816406 202.464844 181.617188 C 202.132812 183.464844 203.339844 185.238281 205.1875 185.59375 C 207.128906 185.949219 209.070312 186.136719 211.007812 186.136719 C 215.789062 186.136719 220.5 185 224.785156 182.824219 C 225.800781 194.75 235.316406 204.527344 247.621094 205.261719 C 247.714844 205.261719 247.765625 205.261719 247.8125 205.261719 C 249.609375 205.261719 251.101562 203.863281 251.21875 202.066406 C 251.289062 200.195312 249.917969 198.585938 248.046875 198.492188 Z M 248.046875 198.492188 " fill-opacity="1" fill-rule="nonzero"/><g clip-path="url(#cfec6aeead)"><path fill="#000000" d="M 185.039062 267.902344 L 185.039062 87.578125 C 185.09375 83.277344 182.992188 79.203125 179.417969 76.714844 C 176.183594 74.394531 171.871094 73.035156 167.273438 72.921875 C 162.675781 72.808594 158.304688 73.941406 155.070312 76.148438 C 151.4375 78.410156 149.164062 82.371094 148.996094 86.671875 L 149.847656 86.730469 L 148.996094 86.671875 C 148.882812 89.613281 148.769531 92.160156 148.769531 93.347656 C 136.847656 94.3125 128.109375 98.554688 122.714844 106.082031 C 117.378906 113.492188 116.472656 122.660156 116.585938 129.050781 C 116.644531 132.84375 117.097656 136.578125 117.890625 140.253906 C 110.738281 140.878906 103.816406 143.140625 97.683594 146.875 C 80.035156 157.738281 76.34375 177.257812 76.34375 191.800781 C 76.34375 218.109375 90.25 230.558594 101.941406 236.386719 C 109.660156 240.121094 118.003906 242.269531 126.574219 242.722656 C 126.632812 253.871094 131.742188 264.394531 140.480469 271.296875 C 147.972656 277.410156 157.964844 281.03125 167.160156 281.03125 C 178 281.03125 185.039062 275.878906 185.039062 267.902344 Z M 118.230469 128.035156 C 118.230469 121.46875 119.425781 113.550781 124.023438 107.097656 C 129.1875 99.855469 137.8125 95.78125 149.5625 94.988281 C 150.015625 94.933594 150.359375 94.59375 150.359375 94.140625 C 150.359375 94.085938 150.414062 90.859375 150.585938 86.730469 C 150.980469 78.242188 159.496094 74.507812 167.160156 74.675781 C 174.820312 74.847656 183.277344 78.976562 183.277344 87.578125 L 183.277344 267.847656 C 183.277344 276.332031 174.933594 279.332031 167.160156 279.332031 C 158.359375 279.332031 148.769531 275.824219 141.558594 269.941406 C 135.488281 265.015625 128.222656 256.132812 128.222656 241.820312 C 128.222656 241.367188 127.824219 240.96875 127.371094 240.96875 C 118.742188 240.628906 110.34375 238.535156 102.566406 234.746094 C 86.277344 226.65625 78.046875 212.171875 78.046875 191.800781 C 78.046875 171.429688 84.859375 156.777344 98.421875 148.460938 C 104.609375 144.667969 111.648438 142.460938 118.914062 142.007812 C 119.195312 142.007812 119.425781 141.894531 119.59375 141.667969 C 119.765625 141.445312 119.820312 141.21875 119.707031 140.933594 C 118.742188 136.691406 118.230469 132.390625 118.230469 128.035156 Z M 118.230469 128.035156 " fill-opacity="1" fill-rule="nonzero"/></g><g clip-path="url(#68b644ad03)"><path fill="#000000" d="M 124.429688 194.910156 L 114.742188 204.609375 L 103.582031 204.609375 C 103.554688 204.386719 103.503906 204.167969 103.421875 203.957031 C 103.339844 203.742188 103.234375 203.546875 103.101562 203.359375 C 102.972656 203.175781 102.820312 203.011719 102.648438 202.863281 C 102.472656 202.71875 102.285156 202.597656 102.082031 202.5 C 101.878906 202.402344 101.664062 202.328125 101.441406 202.285156 C 101.21875 202.242188 100.996094 202.226562 100.769531 202.238281 C 100.542969 202.25 100.324219 202.292969 100.109375 202.359375 C 99.890625 202.429688 99.6875 202.523438 99.496094 202.644531 C 99.304688 202.765625 99.132812 202.910156 98.976562 203.074219 C 98.820312 203.238281 98.6875 203.417969 98.578125 203.617188 C 98.46875 203.816406 98.386719 204.027344 98.332031 204.246094 C 98.273438 204.464844 98.246094 204.6875 98.246094 204.914062 C 98.246094 205.140625 98.273438 205.363281 98.332031 205.582031 C 98.386719 205.800781 98.46875 206.011719 98.578125 206.210938 C 98.6875 206.410156 98.820312 206.589844 98.976562 206.753906 C 99.132812 206.917969 99.304688 207.0625 99.496094 207.183594 C 99.6875 207.304688 99.890625 207.398438 100.109375 207.46875 C 100.324219 207.535156 100.542969 207.578125 100.769531 207.589844 C 100.996094 207.601562 101.21875 207.585938 101.441406 207.542969 C 101.664062 207.5 101.878906 207.425781 102.082031 207.328125 C 102.285156 207.230469 102.472656 207.109375 102.648438 206.964844 C 102.820312 206.816406 102.972656 206.652344 103.101562 206.46875 C 103.234375 206.28125 103.339844 206.085938 103.421875 205.871094 C 103.503906 205.660156 103.554688 205.441406 103.582031 205.21875 L 114.988281 205.21875 L 124.675781 195.515625 L 138.960938 195.515625 L 148.042969 204.609375 L 185.109375 204.609375 L 185.109375 204.003906 L 148.292969 204.003906 L 139.210938 194.910156 Z M 100.941406 206.988281 C 100.667969 206.988281 100.402344 206.9375 100.148438 206.832031 C 99.894531 206.726562 99.667969 206.578125 99.472656 206.382812 C 99.28125 206.191406 99.128906 205.964844 99.023438 205.710938 C 98.917969 205.457031 98.863281 205.191406 98.863281 204.917969 C 98.863281 204.644531 98.914062 204.378906 99.019531 204.125 C 99.125 203.871094 99.273438 203.644531 99.46875 203.449219 C 99.664062 203.253906 99.886719 203.105469 100.140625 203 C 100.394531 202.894531 100.660156 202.839844 100.933594 202.839844 C 101.207031 202.839844 101.472656 202.894531 101.726562 202.996094 C 101.980469 203.101562 102.203125 203.253906 102.398438 203.445312 C 102.59375 203.640625 102.742188 203.867188 102.847656 204.121094 C 102.953125 204.375 103.007812 204.640625 103.007812 204.914062 C 103.007812 205.1875 102.953125 205.453125 102.847656 205.707031 C 102.746094 205.960938 102.59375 206.183594 102.402344 206.378906 C 102.207031 206.574219 101.984375 206.722656 101.730469 206.828125 C 101.480469 206.933594 101.214844 206.988281 100.941406 206.988281 Z M 100.941406 206.988281 " fill-opacity="1" fill-rule="nonzero"/></g><g clip-path="url(#38054f3e68)"><path fill="#000000" d="M 139.488281 184.90625 C 139.496094 185.242188 139.5625 185.566406 139.691406 185.878906 C 139.820312 186.191406 140.003906 186.464844 140.234375 186.710938 C 140.46875 186.953125 140.738281 187.144531 141.042969 187.285156 C 141.351562 187.425781 141.671875 187.503906 142.007812 187.523438 C 142.34375 187.542969 142.671875 187.5 142.988281 187.394531 C 143.308594 187.289062 143.597656 187.128906 143.859375 186.914062 C 144.117188 186.703125 144.328125 186.445312 144.492188 186.152344 C 144.65625 185.859375 144.761719 185.542969 144.804688 185.210938 L 185.101562 185.210938 L 185.101562 184.601562 L 144.8125 184.601562 C 144.765625 184.269531 144.664062 183.957031 144.5 183.660156 C 144.335938 183.367188 144.125 183.113281 143.863281 182.898438 C 143.605469 182.683594 143.316406 182.523438 142.996094 182.417969 C 142.675781 182.3125 142.347656 182.269531 142.011719 182.289062 C 141.675781 182.308594 141.355469 182.386719 141.050781 182.527344 C 140.746094 182.667969 140.476562 182.859375 140.242188 183.105469 C 140.007812 183.347656 139.828125 183.625 139.699219 183.933594 C 139.570312 184.246094 139.5 184.570312 139.496094 184.90625 Z M 144.230469 184.90625 C 144.230469 185.179688 144.175781 185.445312 144.074219 185.699219 C 143.96875 185.953125 143.816406 186.179688 143.625 186.371094 C 143.429688 186.566406 143.207031 186.71875 142.953125 186.820312 C 142.699219 186.925781 142.433594 186.980469 142.160156 186.980469 C 141.882812 186.980469 141.621094 186.925781 141.367188 186.820312 C 141.113281 186.71875 140.890625 186.566406 140.695312 186.371094 C 140.5 186.179688 140.351562 185.953125 140.246094 185.699219 C 140.140625 185.445312 140.089844 185.179688 140.089844 184.90625 C 140.089844 184.632812 140.140625 184.367188 140.246094 184.113281 C 140.351562 183.859375 140.5 183.636719 140.695312 183.441406 C 140.890625 183.246094 141.113281 183.097656 141.367188 182.992188 C 141.621094 182.886719 141.882812 182.832031 142.160156 182.832031 C 142.433594 182.832031 142.699219 182.882812 142.953125 182.988281 C 143.207031 183.09375 143.433594 183.242188 143.628906 183.4375 C 143.820312 183.632812 143.972656 183.855469 144.078125 184.113281 C 144.183594 184.367188 144.234375 184.632812 144.234375 184.90625 Z M 144.230469 184.90625 " fill-opacity="1" fill-rule="nonzero"/></g><g clip-path="url(#10b7d1dcf9)"><path fill="#000000" d="M 146.148438 194.605469 C 146.15625 194.945312 146.222656 195.269531 146.351562 195.578125 C 146.480469 195.890625 146.664062 196.167969 146.894531 196.410156 C 147.128906 196.652344 147.398438 196.84375 147.703125 196.984375 C 148.011719 197.125 148.332031 197.203125 148.667969 197.222656 C 149.003906 197.242188 149.332031 197.199219 149.652344 197.09375 C 149.96875 196.992188 150.261719 196.832031 150.519531 196.617188 C 150.777344 196.402344 150.992188 196.148438 151.152344 195.851562 C 151.316406 195.558594 151.421875 195.246094 151.464844 194.910156 L 155.183594 194.910156 L 160.179688 199.914062 L 171.023438 199.914062 L 175.566406 195.363281 L 185.125 195.363281 L 185.125 194.757812 L 175.292969 194.757812 L 170.75 199.304688 L 160.402344 199.304688 L 155.40625 194.304688 L 151.472656 194.304688 C 151.425781 193.96875 151.324219 193.65625 151.160156 193.363281 C 150.996094 193.066406 150.785156 192.8125 150.527344 192.597656 C 150.265625 192.382812 149.976562 192.222656 149.65625 192.117188 C 149.335938 192.015625 149.007812 191.972656 148.671875 191.988281 C 148.335938 192.007812 148.015625 192.089844 147.710938 192.230469 C 147.40625 192.371094 147.136719 192.5625 146.902344 192.804688 C 146.667969 193.046875 146.488281 193.324219 146.359375 193.636719 C 146.230469 193.945312 146.160156 194.269531 146.15625 194.605469 Z M 150.890625 194.605469 C 150.890625 194.882812 150.839844 195.148438 150.734375 195.402344 C 150.628906 195.65625 150.476562 195.878906 150.285156 196.074219 C 150.089844 196.269531 149.867188 196.417969 149.613281 196.523438 C 149.359375 196.628906 149.09375 196.679688 148.820312 196.679688 C 148.546875 196.679688 148.28125 196.628906 148.027344 196.523438 C 147.773438 196.417969 147.550781 196.269531 147.355469 196.074219 C 147.160156 195.878906 147.011719 195.65625 146.90625 195.402344 C 146.800781 195.148438 146.75 194.882812 146.75 194.605469 C 146.75 194.332031 146.800781 194.066406 146.90625 193.8125 C 147.011719 193.558594 147.160156 193.335938 147.355469 193.140625 C 147.550781 192.945312 147.773438 192.796875 148.027344 192.691406 C 148.28125 192.585938 148.546875 192.535156 148.820312 192.535156 C 149.09375 192.53125 149.359375 192.585938 149.613281 192.691406 C 149.867188 192.792969 150.09375 192.945312 150.289062 193.140625 C 150.484375 193.332031 150.632812 193.558594 150.738281 193.8125 C 150.84375 194.066406 150.898438 194.332031 150.898438 194.605469 Z M 150.890625 194.605469 " fill-opacity="1" fill-rule="nonzero"/></g><path fill="#000000" d="M 134.597656 172.554688 L 125.90625 181.234375 L 116.21875 181.234375 C 116.191406 181.007812 116.140625 180.789062 116.058594 180.578125 C 115.976562 180.367188 115.871094 180.167969 115.742188 179.984375 C 115.609375 179.796875 115.457031 179.632812 115.285156 179.488281 C 115.109375 179.339844 114.921875 179.21875 114.71875 179.121094 C 114.515625 179.023438 114.300781 178.949219 114.078125 178.90625 C 113.859375 178.863281 113.632812 178.847656 113.40625 178.859375 C 113.183594 178.871094 112.960938 178.914062 112.746094 178.984375 C 112.53125 179.050781 112.324219 179.144531 112.132812 179.265625 C 111.941406 179.386719 111.769531 179.53125 111.613281 179.695312 C 111.457031 179.859375 111.324219 180.042969 111.214844 180.238281 C 111.105469 180.4375 111.023438 180.648438 110.96875 180.867188 C 110.910156 181.085938 110.882812 181.308594 110.882812 181.535156 C 110.882812 181.761719 110.910156 181.984375 110.96875 182.203125 C 111.023438 182.425781 111.105469 182.632812 111.214844 182.832031 C 111.324219 183.03125 111.457031 183.210938 111.613281 183.375 C 111.769531 183.539062 111.941406 183.683594 112.132812 183.804688 C 112.324219 183.925781 112.53125 184.019531 112.746094 184.089844 C 112.960938 184.15625 113.183594 184.199219 113.40625 184.210938 C 113.632812 184.222656 113.859375 184.207031 114.078125 184.164062 C 114.300781 184.121094 114.515625 184.050781 114.71875 183.949219 C 114.921875 183.851562 115.109375 183.730469 115.285156 183.585938 C 115.457031 183.4375 115.609375 183.273438 115.742188 183.089844 C 115.871094 182.902344 115.976562 182.707031 116.058594 182.492188 C 116.140625 182.28125 116.191406 182.0625 116.21875 181.839844 L 126.15625 181.839844 L 134.820312 173.164062 L 141.609375 173.164062 L 148.953125 180.511719 L 184.804688 180.511719 L 184.804688 179.90625 L 149.203125 179.90625 L 141.863281 172.554688 Z M 113.554688 183.609375 C 113.28125 183.609375 113.015625 183.554688 112.761719 183.453125 C 112.507812 183.347656 112.285156 183.195312 112.089844 183.003906 C 111.898438 182.808594 111.746094 182.585938 111.640625 182.332031 C 111.535156 182.078125 111.484375 181.8125 111.484375 181.539062 C 111.484375 181.265625 111.535156 181 111.640625 180.746094 C 111.742188 180.492188 111.890625 180.269531 112.085938 180.074219 C 112.277344 179.878906 112.503906 179.730469 112.753906 179.621094 C 113.007812 179.515625 113.273438 179.464844 113.546875 179.460938 C 113.820312 179.460938 114.085938 179.511719 114.339844 179.617188 C 114.59375 179.71875 114.816406 179.867188 115.011719 180.0625 C 115.207031 180.253906 115.355469 180.480469 115.464844 180.730469 C 115.570312 180.984375 115.625 181.25 115.625 181.523438 C 115.625 181.800781 115.574219 182.066406 115.472656 182.320312 C 115.367188 182.578125 115.21875 182.800781 115.023438 182.996094 C 114.828125 183.191406 114.605469 183.34375 114.347656 183.449219 C 114.09375 183.554688 113.828125 183.609375 113.554688 183.609375 Z M 113.554688 183.609375 " fill-opacity="1" fill-rule="nonzero"/><g clip-path="url(#d8421360a7)"><path fill="#000000" d="M 125.566406 174.792969 L 121.648438 174.792969 C 121.625 174.570312 121.570312 174.351562 121.492188 174.136719 C 121.410156 173.925781 121.304688 173.730469 121.171875 173.542969 C 121.039062 173.359375 120.890625 173.195312 120.714844 173.046875 C 120.542969 172.902344 120.355469 172.78125 120.148438 172.679688 C 119.945312 172.582031 119.734375 172.511719 119.511719 172.46875 C 119.289062 172.425781 119.066406 172.410156 118.839844 172.421875 C 118.613281 172.433594 118.390625 172.476562 118.175781 172.542969 C 117.960938 172.613281 117.757812 172.707031 117.566406 172.828125 C 117.375 172.949219 117.199219 173.089844 117.046875 173.257812 C 116.890625 173.421875 116.757812 173.601562 116.648438 173.800781 C 116.539062 174 116.457031 174.207031 116.398438 174.429688 C 116.34375 174.648438 116.316406 174.871094 116.316406 175.097656 C 116.316406 175.324219 116.34375 175.546875 116.398438 175.765625 C 116.457031 175.984375 116.539062 176.195312 116.648438 176.394531 C 116.757812 176.589844 116.890625 176.773438 117.046875 176.9375 C 117.199219 177.101562 117.375 177.246094 117.566406 177.367188 C 117.757812 177.484375 117.960938 177.582031 118.175781 177.648438 C 118.390625 177.71875 118.613281 177.757812 118.839844 177.773438 C 119.066406 177.785156 119.289062 177.769531 119.511719 177.726562 C 119.734375 177.679688 119.945312 177.609375 120.148438 177.511719 C 120.355469 177.414062 120.542969 177.292969 120.714844 177.144531 C 120.890625 177 121.039062 176.835938 121.171875 176.648438 C 121.304688 176.464844 121.410156 176.265625 121.492188 176.054688 C 121.570312 175.84375 121.625 175.625 121.648438 175.398438 L 125.820312 175.398438 L 133.457031 167.753906 L 143.535156 167.753906 L 150.238281 174.464844 L 184.800781 174.464844 L 184.800781 173.859375 L 150.492188 173.859375 L 143.78125 167.148438 L 133.210938 167.148438 Z M 119.003906 177.171875 C 118.730469 177.171875 118.464844 177.117188 118.210938 177.011719 C 117.957031 176.90625 117.734375 176.757812 117.539062 176.5625 C 117.34375 176.367188 117.195312 176.144531 117.089844 175.890625 C 116.984375 175.636719 116.933594 175.371094 116.933594 175.097656 C 116.933594 174.820312 116.984375 174.558594 117.089844 174.304688 C 117.195312 174.050781 117.34375 173.824219 117.539062 173.628906 C 117.734375 173.4375 117.957031 173.285156 118.210938 173.179688 C 118.464844 173.074219 118.730469 173.023438 119.003906 173.023438 C 119.277344 173.023438 119.542969 173.074219 119.796875 173.179688 C 120.050781 173.285156 120.273438 173.4375 120.46875 173.628906 C 120.664062 173.824219 120.8125 174.050781 120.917969 174.304688 C 121.023438 174.558594 121.074219 174.820312 121.074219 175.097656 C 121.074219 175.371094 121.023438 175.636719 120.917969 175.890625 C 120.8125 176.144531 120.664062 176.367188 120.46875 176.5625 C 120.273438 176.757812 120.050781 176.90625 119.796875 177.011719 C 119.542969 177.117188 119.277344 177.171875 119.003906 177.171875 Z M 119.003906 177.171875 " fill-opacity="1" fill-rule="nonzero"/></g><path fill="#000000" d="M 108.378906 198.546875 C 108.351562 198.324219 108.296875 198.105469 108.21875 197.894531 C 108.136719 197.679688 108.03125 197.484375 107.898438 197.296875 C 107.769531 197.113281 107.617188 196.949219 107.441406 196.800781 C 107.269531 196.65625 107.082031 196.535156 106.878906 196.4375 C 106.671875 196.335938 106.460938 196.265625 106.238281 196.222656 C 106.015625 196.179688 105.792969 196.164062 105.566406 196.175781 C 105.339844 196.1875 105.121094 196.230469 104.902344 196.296875 C 104.6875 196.367188 104.484375 196.460938 104.292969 196.582031 C 104.101562 196.703125 103.929688 196.847656 103.773438 197.011719 C 103.617188 197.175781 103.484375 197.355469 103.375 197.554688 C 103.265625 197.753906 103.183594 197.960938 103.125 198.183594 C 103.070312 198.402344 103.042969 198.625 103.042969 198.851562 C 103.042969 199.078125 103.070312 199.300781 103.125 199.519531 C 103.183594 199.738281 103.265625 199.949219 103.375 200.148438 C 103.484375 200.34375 103.617188 200.527344 103.773438 200.691406 C 103.929688 200.855469 104.101562 201 104.292969 201.121094 C 104.484375 201.242188 104.6875 201.335938 104.902344 201.402344 C 105.121094 201.472656 105.339844 201.515625 105.566406 201.527344 C 105.792969 201.539062 106.015625 201.523438 106.238281 201.480469 C 106.460938 201.4375 106.671875 201.363281 106.878906 201.265625 C 107.082031 201.167969 107.269531 201.046875 107.441406 200.898438 C 107.617188 200.753906 107.769531 200.589844 107.898438 200.402344 C 108.03125 200.21875 108.136719 200.019531 108.21875 199.808594 C 108.296875 199.597656 108.351562 199.378906 108.378906 199.15625 L 114.007812 199.15625 L 122.964844 190.164062 L 184.804688 190.164062 L 184.804688 189.558594 L 122.714844 189.558594 L 113.730469 198.546875 Z M 105.730469 200.925781 C 105.457031 200.925781 105.191406 200.871094 104.9375 200.765625 C 104.683594 200.660156 104.460938 200.511719 104.265625 200.316406 C 104.074219 200.121094 103.921875 199.898438 103.816406 199.644531 C 103.710938 199.390625 103.660156 199.125 103.660156 198.851562 C 103.660156 198.578125 103.710938 198.3125 103.816406 198.058594 C 103.921875 197.804688 104.074219 197.578125 104.265625 197.386719 C 104.460938 197.191406 104.683594 197.039062 104.9375 196.933594 C 105.191406 196.832031 105.457031 196.777344 105.730469 196.777344 C 106.003906 196.777344 106.269531 196.832031 106.523438 196.933594 C 106.777344 197.039062 107 197.191406 107.195312 197.386719 C 107.390625 197.578125 107.539062 197.804688 107.644531 198.058594 C 107.75 198.3125 107.800781 198.578125 107.800781 198.851562 C 107.800781 199.125 107.75 199.390625 107.644531 199.644531 C 107.539062 199.898438 107.390625 200.121094 107.195312 200.316406 C 107 200.511719 106.777344 200.660156 106.523438 200.765625 C 106.269531 200.871094 106.003906 200.925781 105.730469 200.925781 Z M 105.730469 200.925781 " fill-opacity="1" fill-rule="nonzero"/></svg>